<svg id="Ñëîé_1" data-name="Ñëîé 1" xmlns="http://www.w3.org/2000/svg" viewBox="0 0 1899.1 685.16"><defs><style>.cls-1,.cls-3{fill:#231f20;}.cls-1,.cls-2,.cls-4{fill-rule:evenodd;}.cls-2{fill:#fff;}.cls-4{fill:#647b98;}</style></defs><path class="cls-1" d="M53.71,746.84l14.5-.07a3.34,3.34,0,0,1,3.22,3l2,6.8V768l-12.31-1.37c-1.79-.29-3.09-1-3.67-2.17l-5.15-14.34C51.72,748.19,52.08,746.85,53.71,746.84Z" transform="translate(-15.97 -228.61)"/><path class="cls-1" d="M1663.91,559.94c-5.72-.34-17-23.39-17-23.39-1.23,0-2.45-.16-2.45-.16l4.15,14,.92,3c2,5.16,6,11,12.34,11.32l54.82,2.39c4,.78,25.69-23.16,25.69-23.16l-23.73,19C1689.55,561.27,1663.91,559.94,1663.91,559.94Z" transform="translate(-15.97 -228.61)"/><path class="cls-1" d="M1648.66,550.34l-3.58-13.84,1.88,0c9.18.27,50.66,1.73,95.47,7.32,0,0,41.91,2.32,113.69,12.7C1705.23,526,1521.56,523.52,1338.54,522l-308,8.28C1236.59,536,1442.62,539.56,1648.66,550.34Z" transform="translate(-15.97 -228.61)"/><path class="cls-2" d="M1539.75,439.18l-38.86-29.83,7.38,14.92a201.24,201.24,0,0,0,33.48,35.18Z" transform="translate(-15.97 -228.61)"/><path class="cls-1" d="M1319.55,446.11c-23.71-57.06-55.09-110.83-91.73-162.34,15,3.4,32.14,7.09,47.24,9.84,59.32,10.8,115.83,36.3,172.61,77.12,17.47,12.56,35.9,24.38,53.22,38.62L1539.52,439c-.37-5.54-.52-9.54-.52-9.54-85-71.36-170.16-125.79-255.93-145.28-59.74-11.74-116.57-15.17-172-14.58q-10-.33-19.47,0v10.3a442.38,442.38,0,0,1,62.76,0l34.93,1.54c29.23,50.58,52.35,104.39,71.11,160.52q-84.45-7.08-168.8-10.63v9.22c69.91,3.11,143.18,7.8,209.42,12.5,16.23-2.55,295.33,35.74,312,42.56l-24.09-24.89c-2.39,1.12-14.65,5.34-17.8,5.71-22.88,3.47-26.51-5.54-26.51-5.54-1.28-1.8-2.29-6.24-3.09-11.57a200.74,200.74,0,0,1-33.27-35l23,47.56ZM1091.61,269.6c-75.14,2.68-122.08,36.6-152.91,80.61-15,21.45-28.62,43.07-37.77,67.53-1.5,8.05-1.26,14.72,1.06,19.71,52.87-1.61,119.56-.07,189.62,3.05v-9.22q-84.55-3.63-168.8-4.17c4.37-27.88,13.74-43.05,24.87-62.68,27-49.58,69.15-78.61,143.93-84.53Z" transform="translate(-15.97 -228.61)"/><path class="cls-1" d="M988.3,315.09a64.62,64.62,0,0,1,8.93-6.44,670.09,670.09,0,0,1,44.69,120.77l-13.64-.42C1019,389.71,1005,352.23,988.3,315.09Z" transform="translate(-15.97 -228.61)"/><path class="cls-1" d="M1500.89,409.35l30.34,62.48-7.3-.88c-7.64-17-19.83-47-24.86-63.08Z" transform="translate(-15.97 -228.61)"/><path class="cls-2" d="M1547.74,417.27a17.17,17.17,0,0,1,7.14.34l-7,4.94Z" transform="translate(-15.97 -228.61)"/><path class="cls-2" d="M1553.27,443l6.8-23.39q12.9,3,15.21,16.59c1.12,11.44.29,20.51-2.88,26.73a8.89,8.89,0,0,1-4.11,2.52Z" transform="translate(-15.97 -228.61)"/><path class="cls-1" d="M1559.28,458.13c2.1,2.71,4.07,5.46,6,8.33a46.9,46.9,0,0,1-6,1.1v6.06c7.18-.76,13.39-2.29,16.92-5.94l9.72.78,10.78-13.85-16.2-2.87a137.91,137.91,0,0,0-.72-17.43c-.14-1.33,14.48-.12,13.34-.41a102.54,102.54,0,0,0-13.84-2.07,12.53,12.53,0,0,0-1.76-4.56c-3.76-5.46-11-10.8-16.86-12.13l-1.38-.34v7.48l.79-2.71q12.9,3,15.21,16.59c1.12,11.44.29,20.51-2.88,26.73a8.89,8.89,0,0,1-4.11,2.52l-9-13.47v6.19Zm0,19v-3.49l7.12,3.32A50.24,50.24,0,0,1,1559.28,477.12Zm-5.2-25.23c1.85,2.07,3.57,4.14,5.2,6.24v-6.19l-5.2-7.78v7.73Zm5.2,15.67a43.94,43.94,0,0,1-5,.29c-.07-.51-.15-1-.21-1.54v10.17a34,34,0,0,0,5.2.64v-3.49h0v-6.06Zm0-52.76v7.48l-5.2,17.9v-22l.8-.57-.8-.19v-3.66C1555.71,414,1557.45,414.37,1559.28,414.8ZM1553,450.68c.38.4.74.81,1.11,1.21v-7.73l-.81-1.2.81-2.78v-22l-6.24,4.37-.1-5.28a17.31,17.31,0,0,1,6.34.15v-3.66c-9.16-1.45-15,0-15.77,5.86.07,3.19.19,6.37.34,9.55l.35.29s.15,4,.52,9.54l.23.18,2,20.27-.21-.18c.8,5.33,1.81,9.77,3.09,11.57,0,0,1.61,4,9.45,5.64V466.31A126.36,126.36,0,0,1,1553,450.68Z" transform="translate(-15.97 -228.61)"/><path class="cls-2" d="M1553.37,442.63c4.73,5.14,11.87,17.14,14.92,22.78-3.66.92-10.33,2.44-14,2.44C1552.84,462.21,1552.72,448.44,1553.37,442.63Z" transform="translate(-15.97 -228.61)"/><path class="cls-3" d="M1609.73,492.15c.07.06,28.3,22.81,31.76,38.09l-2.31-.15c-3.35-14.83-28.71-35.63-28.78-35.69Z" transform="translate(-15.97 -228.61)"/><path class="cls-3" d="M1615.61,470.83c.08.05,25.55,17.37,32.46,21.51l1.1.64c6.76,4.08,15.84,9.77,38.07,13.48,16.11,2.69,36.91,7.19,58.69,11.91,10.24,2.21,20.69,4.48,30.76,6.58,14,2.93,27.85,6.56,40.45,10.3,16.25,4.84,25.45,8.11,35.49,12l3.72,3.11c-10-3.9-23.36-9-39.59-13.85-12.56-3.38-26.34-6.62-40.34-10.28-10.36-2.16-20.67-4.39-30.77-6.58-21.79-4.72-42.6-9.23-58.63-11.9-22.48-3.75-31.8-9.38-38.66-13.52l-1.09-.66h0c-7-4.18-34.71-23.54-34.78-23.59Z" transform="translate(-15.97 -228.61)"/><path class="cls-3" d="M1756.9,513.19a251.19,251.19,0,0,0,30.46,10.22l6.08,2.55c-16.47-3.25-38.91-12.73-39-12.75Z" transform="translate(-15.97 -228.61)"/><path class="cls-3" d="M1856.78,550.53s-.89,4.51,2.36,10.29c3,5.42,10.78,16.06,12.6,18.57l.36.49h0c.36.51,3.71,5.65,6.59,10.2,1.76,2.77,3.37,5.35,4,6.57,1.7,3.05,8.71,13.51,8.73,13.55l.74,4.48s-8.87-14.23-10.63-17.39c-.63-1.15-2.23-3.71-4-6.5-2.88-4.55-6.39-9.45-6.76-10l-.37-.63c-1.83-2.52-9.38-13.24-12.47-18.74a18.7,18.7,0,0,1-2.57-11.5Z" transform="translate(-15.97 -228.61)"/><polygon class="cls-3" points="1832.62 371.91 1843.08 366.83 1859.58 356.56 1860.3 357.67 1844.08 368.12 1844.05 368.14 1844 368.16 1833.46 373.44 1832.62 371.91"/><path class="cls-1" d="M1858.57,560.59s24.34,1.78,23.85,35.5l-3.35-5.42-6.54-10.15-7.29-10.28Z" transform="translate(-15.97 -228.61)"/><path class="cls-2" d="M1092.19,801.71l151.27-11.21c32.3-2.81,64.38-2.91,96.38-2l326.62,7.65c3,2,6.1,5.74,4.31,5.71-196.52-3-392.59-1.91-587.88,6.18C1080.14,808.12,1086.11,802.45,1092.19,801.71Z" transform="translate(-15.97 -228.61)"/><path class="cls-2" d="M1591.59,729.45c20.34,3.41,26.09,6.34-.26,8.22-83.13,1.6-166.26.75-249.39-3.19-87.58-3-175.55-11.65-263.75-23.86,3.66-8,7.55-24.39,56-20.46l208.6,16.48C1426.72,710.64,1509.53,718.67,1591.59,729.45Z" transform="translate(-15.97 -228.61)"/><path class="cls-1" d="M1153.35,701.79,1343.61,714c44.51,6.65,77.46,8.1,85-1.89l35.79,3.07c-13.86,3.19-24,7.19-21,14.08-18.4-.25-16.19,3,.12,8.54l-44.9-1q22.71-7-8.93-6.63a288.15,288.15,0,0,1-45.76-.56c-62.4-3.52-125.65-8.53-190.52-16.37Q1085.94,699.18,1153.35,701.79Z" transform="translate(-15.97 -228.61)"/><path class="cls-2" d="M1771.58,612.29c-30.72,22.48-41.15,77-40.44,94.69l.82,19.88C1736,682.85,1747,643.53,1771.58,612.29Z" transform="translate(-15.97 -228.61)"/><path class="cls-2" d="M1862.94,702.8l11-7.49a137.76,137.76,0,0,1,1.25,29.29l-12.28-4Q1863,712.16,1862.94,702.8Z" transform="translate(-15.97 -228.61)"/><path class="cls-2" d="M1861.58,748.6l12.33-1.91a100.78,100.78,0,0,1-6.07,27.51l-20.21-17.15,1.65-.78,9,6.85A52.35,52.35,0,0,0,1861.58,748.6Z" transform="translate(-15.97 -228.61)"/><path class="cls-2" d="M1801.72,621.59l12.63-4.56-1,37.77c-.93,18.24-5.23,27-10.77,32.33l-6,4.46-2.79-1.86,5.47-4.79c7.49-5.57,6.88-20.34,8.55-28.4l-6.27-2.85A221.75,221.75,0,0,0,1801.72,621.59Z" transform="translate(-15.97 -228.61)"/><path class="cls-2" d="M1822.42,654.54l11.7-4.51q4.26.78,3.07,4.55c-3.9,3-8.14,5.12-13.13,5.52Q1818.21,657.73,1822.42,654.54Z" transform="translate(-15.97 -228.61)"/><path class="cls-2" d="M1858.83,654.42c2.33-4.47-1.27-5.75-8.86-5.49-3.93.7-4,2.15-2,3.6l4.76,1.74c-13.78,18.61-30.17,32.64-49.44,41.63l4.87,2.43C1827.17,687.23,1845,674.23,1858.83,654.42Z" transform="translate(-15.97 -228.61)"/><path class="cls-2" d="M1842.59,682.48l-7.2,3.13c-1.84,1.71.51,3.86,2,3.24l8-2.86C1847.54,683.88,1846.2,681.26,1842.59,682.48Z" transform="translate(-15.97 -228.61)"/><path class="cls-2" d="M1861.07,683.67l9.38,3.86c2.77,1.11,2.56,4.54-1.41,3.68l-10.21-3.77C1857.73,686.71,1857.49,683.24,1861.07,683.67Z" transform="translate(-15.97 -228.61)"/><path class="cls-2" d="M1760.61,652.68q-19.32,39.29-16.18,81.57c.89,1.46,2.46,2.24,5,2l19.12-.66a30.93,30.93,0,0,0,5.28-6.62l-24.56,1.09C1747,703.47,1751.55,677.77,1760.61,652.68Z" transform="translate(-15.97 -228.61)"/><path class="cls-2" d="M1796,793.7l6-.62c2.48,0,2.49,1.72,2.23,4.63-1.71,10.51-3.06,20.73-4.31,30.79-.36,1.53-1.13,2.45-2.94,1.56l-6.9-4.44c-.8-.57-1-2-1.15-3.61a78.81,78.81,0,0,0,3.44-23.87A11.63,11.63,0,0,1,1796,793.7Z" transform="translate(-15.97 -228.61)"/><path class="cls-2" d="M1775,718c.46-3,6-2.6,6.33.26l-.79,7.19c-.27,1.21-3,2.48-4,0Z" transform="translate(-15.97 -228.61)"/><path class="cls-2" d="M1787.58,732s4.73-4.61,3.92-8.18,2.42-4.84,2.88.12-1.84,7.49-3.8,9.33-3.17,1.54-4.09.58S1787.58,732,1787.58,732Z" transform="translate(-15.97 -228.61)"/><path class="cls-2" d="M1807.08,715.82l-8.2,2.41c1.59,5.09,1.35,10.42-1.67,14.28,11.5-1.57,18.61,12,4.14,10.69-2.89-.7-5.65-.65-9.18-5.19l-3.48,2c-1.72,2-1.56,3.87,1.44,3.54l3.22-1a2,2,0,0,1,2,2.71,13.16,13.16,0,0,1-6.93,2.46c-2.61-.41-4.54-2.59-5-8.65-2.39-1.55-5.15-1.23-6.11,1.69-1,2.35,2,4,3,4.3,4.27,22.54,2.56,28.25-.65,40l-5,16.59c-1.91,4.6-3.79,4.3-6.29,3.34-1.39-1.35-2.85,1.36-1.42,2.3,2.09,1.54,4.15,6.91,9,2.94l10.48-29.68c2.25-7.2,2.08-15.79.18-27.49.23-2.94,6.42-3.59,7.05.28l.64,4.36c-3.59,3-1.68,5.35.92,6.3l3.19,21.88c-1.81,1.36-2.66,3.63-.27,4.75l5-.31c1.42-.42,3-2,.1-5.61l-3.88-27.56c-1.07-4.28-.26-9.93,5.54-2.36l28.06,27.45c1.23,2.48,3.08,4.78,5.74,3.47-.08-2.4-.56-4.74,3.19-3.92,2.29-1.32.58-3.72-5.26-4.8l-22.47-23.28c-4.2-3-.12-16.53,8.46-10.26l16.24,11.95c4.87,3.8,11.41,2.25,12.19-2.21,2.53-13.73,2.59-25,.17-40.71-3.3-1.74-11.6,1.18-14.56,5.8l-1.13,22a23.06,23.06,0,0,0-.15,2.6c.36.26,3.33,2.23,5.83,4.13-.41-10.72-1-18.51.14-23,2.06-8.23,6.58-5.41,5.21,9.28-.43,4.63-.94,10.5-2.21,17.59-.09.79-9.34-5.43-13.46-8.53l-19.25-12.87c-3.31-2.56-2.64-4.66.77-6.45l34.85-13.84c1.47-.77,1.1-3.94-1-3.09l-24.39,10.54c-11.73,4-8.68-.28-1-2.74l24.08-9.42c1.81-1,.84-3.41-1-2.63l-22.38,8.67c-1.87.54-3.63,1-4.59-1.39l-2.68-5.85c-.9-1.48-4.43-.46-4.07,1.1l1.38,5.86Z" transform="translate(-15.97 -228.61)"/><path class="cls-2" d="M1865.56,780.21c.25-2-12.85-2.24-13,.07-2.67,9.71-5.62,13.81-9.08,19.29-1.91,2.57,6.64,11.4,7.67,9.79C1856.7,800.38,1861.83,792.11,1865.56,780.21Z" transform="translate(-15.97 -228.61)"/><path class="cls-2" d="M1835.66,811.83a37.91,37.91,0,0,1-28.34,15.9,1.72,1.72,0,0,0-1.61,1.64l0,3.58a2.34,2.34,0,0,0,1.94,2.07c15.46,1.42,28.52-5.23,39.4-19.24,1.83-2.07,1-3.38-2.31-4.2l-4.59-1.29A4.4,4.4,0,0,0,1835.66,811.83Z" transform="translate(-15.97 -228.61)"/><path class="cls-2" d="M1858.92,689.55c.62-.38,11.14,3.48,5.45,6.6l-12,8c-10.15,2.06-6-6.12-4.86-7.55Z" transform="translate(-15.97 -228.61)"/><path class="cls-1" d="M670.89,469.35c-11-7.64-23.52-13.45-36.69-19-9.69-3.94-19.56-6.92-30.38-6.61-35.38.39-65.62,7.12-89,22.26-17.53,10.6-32.73,24.37-46.87,39.58q-30.72,31.95-57.66,64.83c-5.1,5.84-5.15,11.2,1.83,11,21.4-2.82,43-5.12,65-6.41,45.85-3,85.57-14.64,117.9-36.69,28.69-17.6,56.1-36.35,77.91-60.08C674,474.78,673.49,471.8,670.89,469.35Z" transform="translate(-15.97 -228.61)"/><path class="cls-2" d="M546.74,551.77c-22.84,3.3-38.93,4.52-58.39,6.38l-.13,2.62-2.68,0c0-2.62-3.47-2.14-4.43,1.08l-5.48.57c-.48-2.85-3.07-2.78-4.7.22l-5,.66c.58-2-4-2.88-5.13.32L457,564c-1.3-1.65-3.46-2-6,1.22l-2.75-.06c-3-4-6.7,1.24-10,1.86l-5.58.06,1.34-3.59a17.72,17.72,0,0,0-5.35,1c-9.34,4.63-10.07,9.06-7.2,10.26l62.48-6.76c16.17-2,32.66-4.43,48.74-9.2A70.55,70.55,0,0,0,546.74,551.77Z" transform="translate(-15.97 -228.61)"/><path class="cls-2" d="M586,519.7c-8.54,8.08-20.15,14.4-35.15,18.79-11,1-20,4.7-30,7-6.58,3.33-21,5.39-38.92,6.88l-39.69,4.39c-3.19-.1-4.37-.72-1.42-4.54,8.07-8,16.72-14.33,32.52-17l100-14.22,9.41-.91Z" transform="translate(-15.97 -228.61)"/><path class="cls-1" d="M526.12,533.38c-39.14,7.79-63.85.86-75.56,16.37C479.84,546.25,512.32,544.37,526.12,533.38Z" transform="translate(-15.97 -228.61)"/><path class="cls-2" d="M623.36,495.12l-4.17.41-7.81.49L509.8,505.27a58.43,58.43,0,0,0-40.75,20.14c-4.79,6.05,0,4.66,2.46,4.58,27.21-1.88,48.41-4.43,65.33-7.33C561,515.52,563,515.42,572.76,514c5.76-.85,11.8-1.6,17.7-2.18C611.23,509.74,617.21,498.34,623.36,495.12Z" transform="translate(-15.97 -228.61)"/><path class="cls-1" d="M498.5,513.43l61.66-6c-10.76,3.38-22.06,6.69-35.26,9.77l-39.53,5.6-5,0C484.07,519.28,486.47,515.58,498.5,513.43Z" transform="translate(-15.97 -228.61)"/><path class="cls-2" d="M636.74,472.18l10.57-.59,3-.18c-5.82,5.73-6.4,10.52-21.86,16.13-27,1.66-42.39,6.33-63.58,9.49l-62.65,5.46c-3.33-.4-6.32-1.43-1.41-5.49,11.45-9.81,23.5-16.06,43.55-18.8Z" transform="translate(-15.97 -228.61)"/><path class="cls-1" d="M543.28,485.73l54.2-4c-28.06,4.13-40.92,9.23-70.59,11.41l-11.26.53C520,491.05,526.51,486.21,543.28,485.73Z" transform="translate(-15.97 -228.61)"/><path class="cls-1" d="M476.17,306.93c88.48-33.88,334.94-27.33,363.58.95L838,309.39c-98.65-29.63-311.67-19.75-359.72,1.22C475.83,310.82,469.41,311,476.17,306.93Z" transform="translate(-15.97 -228.61)"/><path class="cls-3" d="M849,281.46a12.35,12.35,0,0,1,5.86,3.43c.17.18.46-.07,1.06-.38,43.4-22.64,89.94-30.41,94.16-29.72-21.36,4.61-50.32,9.53-92.32,30.8a2,2,0,0,0-.87,2c.51,1.37,1.43,3.43.46,5.48-.36.62-1,1-1.23-.27-.12-7.77-8.68-9.8-7.83-9.64C847.76,283.12,847.36,281.46,849,281.46Z" transform="translate(-15.97 -228.61)"/><path class="cls-1" d="M108.74,433.87c92.07-49.93,262.93-23.3,396.05-6.4l10.77-2.13-9.62,4.34C420.3,424.84,181.88,403.84,112,439.8Z" transform="translate(-15.97 -228.61)"/><path class="cls-1" d="M478.24,310.61l-4.34-.2c-58.56,26.81-116,56.62-174.52,86.95l-28.05,7.76,80.18,4.31c12.91-9.58,51.4-11.79,77.1-17.69l-113.1,4C371.54,363.26,426.53,333.2,478.24,310.61Z" transform="translate(-15.97 -228.61)"/><path class="cls-1" d="M838,309.39a398.85,398.85,0,0,0-93.64-15.47c-56.43,41.18-110.55,64.34-242.77,93,65.73,2.47,137.92.54,197.18,7.4C744.41,377.67,791.28,344,838,309.39Z" transform="translate(-15.97 -228.61)"/><path class="cls-2" d="M880.38,624.94c22.2-16.14,46.11-25.41,77.56-13.8a107.86,107.86,0,0,1,47.12,42c10,17.63,13.06,25.19,18.54,42.52l-2.33-2.11a194.12,194.12,0,0,0-18.7-38.35C996.51,662.7,991,670.39,985.16,678c11.67,21.34,18.72,43.55,19,67-.15,3-11-.64-11.1-2.76-.31-19.79-4.9-38.5-12.54-58.51-3,3.68-6.23,7.32-9.71,10.87-11.22,11.42-19.71,18.6-36.19,34.26-2.71,2.26-3.35,1.52-3.29-3.94l-6.5-13.21,7.81,6.35c11.88-10.23,21.22-16.43,34.76-32.25,2.59,2.42,4.22,1.9,5.43.05l27.27-33.73c-7.81-12.23-17.87-21.33-28.74-29.28-1.35,0-2.23,1-2.82,2.5a295,295,0,0,1-20.21,41.85,5.8,5.8,0,0,1,1.94,5.91c-3.55-3.65-6.89-1.39-10.14,3.57-7.74,10.8-13.64,22-23.22,32.41a18.66,18.66,0,0,1-8.19,5.38c23.5-29.67,44-60.4,57-93.76-8.23-7-18.71-9.52-28.15-11-.52,3.41,0,6.47-5.69,6.28l-12.23.07c-1,0-1.23-1.66-.49-3.29q8.82-3.94-.5-2.43a80.12,80.12,0,0,0-26.63,11.33l12.48,39.49c2.51,19.49-4.66,12.25-7.33,10.08l-5.05-3.54c-.86-1.31,0-3.24,3.79-3,1.44.33,5.65,5.5,3.83-3L887.89,624c-11.7,8.44-20.28,19-28,30.25l6.9,11.67,4.75,1-1.26,4.94,8.4,14.2,2.16,3.22c1.81,1.62,3.11.55,3.11-2.28l-.38-1.17c-1.11-1.08-4.23-.35-2-5.94,2.42-3.66,3.84-2.07,4.57,3.12.63,5.36-.06,9.89-3.1,12.95-2,.88-3.78-.58-5-2.55l-20.25-35c-17.42,29.7-21.7,62.57-21.24,96.59l-2.84,2.36C832.46,732.67,831.07,667.62,880.38,624.94Z" transform="translate(-15.97 -228.61)"/><path class="cls-2" d="M905.94,677.26c0-2.28-5.21-.53-5.13,1.4l.87,25.88c-2.73.73-4,2.55-4.46,6.07l-7.44,7.18-3.55-15.72c-1.09-6.34-5.16-4-3.84,1.62l4.17,18.57c1.58,2.84,14.25-6.14,19.84-17.36Z" transform="translate(-15.97 -228.61)"/><path class="cls-2" d="M844.56,727.45l-.16-6c2.77-1.37,5.64-2.55,6.53,3.06l3,1.76-.11,13.13-9.33,6.92,0-3.74c-3.35.66-4.15-5.21,0-5.42l0-2.12c-5.08-.14-2.53-5,0-4.87Z" transform="translate(-15.97 -228.61)"/><path class="cls-2" d="M1002.89,675.82c11.58,14.91,16.72,28.51,20.74,43.46.42,1.54-.19-21.54.53-20.08,4.13,8.35,6.78,41.36,7,52.42a171,171,0,0,1-6.59,47.15l-2.36.4a192.92,192.92,0,0,0,5.47-33.75l-2.45-1.24-3.26.72c-1,13.09-4,23.53-8.32,32.33.4-.23,6.17-32.31,3.91-32.43-1.63-.09-.62-2.52,3.82-3.69l5.94-.7c.76-.32,1.3-.93,1.44-2.68l.15-6.36c-.08-2.31-1.23-3.56-3.44-3.73l-4.6-1.06c-2.16-.49-2.36-.08-2.34-2.3C1018.77,719.82,1014.46,696.73,1002.89,675.82Z" transform="translate(-15.97 -228.61)"/><path class="cls-2" d="M994.73,764.75l7.3.34c.76.12,1,1.44.18,4.91l-2.83,18.44-7.91-.86c-1.31-.52-1.6-2.29-1.19-5l2.43-15.27C993.12,765.69,993.79,764.83,994.73,764.75Z" transform="translate(-15.97 -228.61)"/><path class="cls-2" d="M863.69,698.37c1.08-.4,2.57,1,3.33,3s.51,4-.56,4.44-2.56-.94-3.33-3S862.62,698.77,863.69,698.37Z" transform="translate(-15.97 -228.61)"/><path class="cls-2" d="M854.94,676.58l5.3,10.83a5,5,0,0,1-1.85,4.84,29.68,29.68,0,0,0-4.95,5.87s-3.92,2.42-2.3-6.22.46-8.75.46-8.75-1.44-6.73,1.71-6.73S854.94,676.58,854.94,676.58Z" transform="translate(-15.97 -228.61)"/><path class="cls-2" d="M989.69,813.13c.76-1.32.56-3.27-.54-3.5l-4.54-1.5c-1.18-.28-2.14.06-2.87,2.24-3.75,14.1-12.26,25.32-22.69,35.37A70.36,70.36,0,0,0,989.69,813.13Z" transform="translate(-15.97 -228.61)"/><path class="cls-2" d="M1020.6,750.84c-26.34-4.39-52.6-8-78.78-11L933.29,734a3.39,3.39,0,0,0-4.16.53c-.19,3.37-2,6.17-5.93,8.3a1.9,1.9,0,0,0,.49,3.49q13.37,2.64,9.55,10.32a17.34,17.34,0,0,1-10,4.24,2.74,2.74,0,0,1-3,.56,9.18,9.18,0,0,1-1.92,7c-1.84,5.93-5.13-.55-3.54,7.7,1.14,1.62.79,3-1.74,4-1.92.09-3.77.23-4.16-1.36l-6.31.26c-1.12-.39-1.47-1.24-1.06-2.54.42-5.1-4.66-2.51-3.48.69l3.15,2.53,1.44,4.28,10.13,36.21.59,4.54L916,873l.3,6.27,4.3-2.39-1.9-49.16c1.7-2.67,3.45-5.62-.57-8.86l-6.9-28c-1.11-3.41-.83-5.44.81-6.11l3.14-.75a3.7,3.7,0,0,1,4.57,2.21l17.86,36.5a5.12,5.12,0,0,0,3.46,3.1l2.23.33c1.43.24,2.32,1.29.66,3l-3.88,2.67c-1.67.8-2.07,2.48-1.58,4.76l6.59,32.58c.61,1.39,1.53,2.15,2.91,2l6,1a4.5,4.5,0,0,1,3.81,2.54c.47.62,3.09-.06,2.89-1.52-8.87-48.71-21.23-71.3-33.65-89.94-5-12.31,1.45-13.42,7.25-11.6,28,9.27,54.74,22,81.51,35.83.75.4,2.22-2.28,1.39-3.33l-33.12-16.65a4.13,4.13,0,0,1-3.1-3.41c-.28-2.35-.4-3-2-4l-34-13.26c-2.9-1.36-4.74-3.49-4.28-7.3l.89-5.77c.9-3.39,4.51-5.07,8.88-5l27.38,3.26c4.18.33,7.1,1.26,9.79-.15.85-1.32,2.68-2,6-1.6l26.73,4C1026.29,754.42,1024.45,751.31,1020.6,750.84Z" transform="translate(-15.97 -228.61)"/><path class="cls-2" d="M847.35,765a5.63,5.63,0,0,0,4.36-1c1.77-1.54,3.26-.34,3.26,1.72s.23,3-1.77,4.93-2.81,1.89-4.7,1.89-3-2-3.44-2-.63-3.32.75-3.83A2.3,2.3,0,0,0,847.35,765Z" transform="translate(-15.97 -228.61)"/><path class="cls-2" d="M903.76,728.25c-7.56-9.16-13.92.29-13.92.29-.34,4.26-.92,3.34-1.84,3.22s-1.73-1.73-2.77,2,3.92,2.88,3.92,2.88a2.91,2.91,0,0,0,.48-1.91c-.2-.9,2.39-3.06,2.56-2.38s2.47.58,4.07-1.89,4.12-.74,4.12-.74.29,2.75,1.15,2.4,3,1.32,4.06,2.81,7.85,1.15,8.19-.29-2.29-2.69-3.38-2.46S911.32,737.41,903.76,728.25Z" transform="translate(-15.97 -228.61)"/><path class="cls-2" d="M889.5,752.5a24.61,24.61,0,0,0-1.27-6c-1-2.77.81-4.73,2.54-6.22s4-4.5,8.29-3.46,7.26,2.76,4.72,3.69-5.07-1.39-7-.58-1.49,1.5-3.1,2.77-1.39,3.34-.93,5.41a5.7,5.7,0,0,1-.11,3.34Z" transform="translate(-15.97 -228.61)"/><path class="cls-2" d="M897.75,751.61s-3.84,1.32-1.72,3.9,5,.86,5.61.4,1.61-2.92,2.58-2.92,1.49-2.92,1.37-3.27,1.09-2.29,2.07-2.29,3.37-4.41-.81-2.8-3.6,1.43-3.6,1.43a1.41,1.41,0,0,1-.81,2.4c-2.17.75-2.23,1.32-1.89,1.78s-1.89,1-1.89,1Z" transform="translate(-15.97 -228.61)"/><path class="cls-2" d="M911,736.82c-1.6,2.68-.11,4.93,2.35,5.23.48,3.88,2,5.66,5,4.36,1.94-2.38,2.17-4-1.39-4.14l-1.06-1.5C916.81,736.81,915.11,734.39,911,736.82Z" transform="translate(-15.97 -228.61)"/><path class="cls-2" d="M885.35,756.18s-.8,5.07,2.42,7.49,2.88-1.38,3.23-2.76,1.38-2.65-.81-2.54-2.3,3.23-2.65-.23,0-3.47-1.41-2.81S885.35,756.18,885.35,756.18Z" transform="translate(-15.97 -228.61)"/><path class="cls-2" d="M892.94,762.38c.57-1.66,2.58-2.41,3.78-.86s4.46,1,4.46-.06,2.87-2.92,3.9-.34c.09.24.07.82.32.73,3-2.13,7.78-1.81,1.36,3-.21.93-.08,1.93-1.11,2.06-3.09.4-3.55-1.14-4.52-1.31s-1.32-1.84-3-.18-3.09,2.75-4,1.55a27.92,27.92,0,0,1-1.72-2.86Z" transform="translate(-15.97 -228.61)"/><path class="cls-2" d="M885.1,743.1c-8.68,1.81-33.32,13.2-43.27,15-2.59,1.67-3.61.27-3.93-.59-2-.44-3.68-.18-3.54,2.25.37,1.52,1.33,1.75,2.55,1.65l-2.86,2.75c1.78,20,7.39,35.68,14.78,51.55l6.55,13.2c8.61,16.81,20.63,30.25,38.45,41.53,3.65,2.35,8.92,4.93,17.77,8,16.93,5.25,32.94,5,48.34.08,9.09-3,18-8.69,26.06-14.42,20.91-16.42,37.84-59.86,37.41-60.59,1-4.91-1-3.8-2.12-1.44,0,.3-14.93,37.14-34,56.28-22.93,18-28.93,16.83-40.07,19.7-11.64,2.3-21.34.76-31-2a98.19,98.19,0,0,1-28.56-14.28A106.25,106.25,0,0,1,862.47,833c-3.18-4.52-3-7.54,3.48-4.91,6.75,2.42,13.58,1.79,20.48-1.13,3.09-1.25,4.31-2.69,2.82-4.4-1.22-1-1.41-1.88-.08-2.45,3.41-2.39,3.59-4.85-.95-7.39L881,807.21c-3.81-2.38-7.31-3.45-11.83-1.55a21.45,21.45,0,0,0-9.48,9q-3.94,7.31-5.6,1.56l-5.3-10.61c-4.36-8.95-7.53-20.26-10.66-36.58-.7-3.92,1-6,4.77-7.48A198.64,198.64,0,0,0,876,749c2.91-1.31,4.67-.55,2,1.13l-10.49,6c-1.33,1.15-.68,2.84.9,2.38,5.72-3.48,10.93-4.09,17.16-10.43C886.38,744.23,885.48,743.77,885.1,743.1Z" transform="translate(-15.97 -228.61)"/><path class="cls-2" d="M886.23,771.38l-8.17,13.34h-3.68c-2.07-.13-3.86,3.37-2.68,3.87l4.54-.05a6.42,6.42,0,0,0,4.45-2.84l6.68-11.64C889.42,769.88,887.19,769.43,886.23,771.38Z" transform="translate(-15.97 -228.61)"/><path class="cls-3" d="M933.32,254.76c-.18,0-60.49-7.85-159.57-6.47l7.48-.71c99.17-1.38,152.08,5.84,152.26,5.86Z" transform="translate(-15.97 -228.61)"/><path class="cls-1" d="M695,229.07c.06-.52,1.6-.71,1.73.06l5.1,19.74c-1.7,1.46-5,2.43-7,1Z" transform="translate(-15.97 -228.61)"/><path class="cls-1" d="M689.87,256.54a2.61,2.61,0,0,0,2.52,3.47,89.15,89.15,0,0,0,12.12-.1c2.62-.19,27.78-5.84,33.77-7.43,1.92-.5,1.21-1.22-1.73-1-10.55.85-20.32,4-29.73,4.71A150.08,150.08,0,0,1,689.87,256.54Z" transform="translate(-15.97 -228.61)"/><path class="cls-1" d="M82.33,484.68c-1,29.68-.12,59.15,1.69,88.52-.65,7.2-5.57,8.78-13.39,6.51-11.06-1.63-20.76-4.08-28.3-7.85C53,540,67.08,511.77,82.33,484.68Z" transform="translate(-15.97 -228.61)"/><path class="cls-2" d="M72.2,563.66c-8-2.64-20.69-2-24.07-7.94l-3.71,10,6.75,1.31c7.75,1.76,15.34,4.14,22.92,6.56,2.21.73,3.41.37,3.15-1.6l-.58-3.16A5.76,5.76,0,0,0,72.2,563.66Z" transform="translate(-15.97 -228.61)"/><path class="cls-2" d="M69.33,548.09c-4.89-1.61-11.59-2-16.78-3.42l-2.91,7.16c7.25,1.72,14.48,4,21.58,6.24,2.2.73,3.41.36,3.14-1.61l-.57-3.16A5.74,5.74,0,0,0,69.33,548.09Z" transform="translate(-15.97 -228.61)"/><path class="cls-2" d="M66.68,531a52.6,52.6,0,0,0-7.38-1.64q-1.77,3.84-3.46,7.7c4.26,1.23,8.5,2.57,12.74,3.92,2.2.73,3.41.37,3.14-1.61l-.57-3.15A5.76,5.76,0,0,0,66.68,531Z" transform="translate(-15.97 -228.61)"/><path class="cls-2" d="M61.89,523.74l3.71,1.17c2.21.73,3.41.37,3.15-1.61l-.57-3.16a5.84,5.84,0,0,0-2.45-4.28Z" transform="translate(-15.97 -228.61)"/><path class="cls-1" d="M123.83,487.86c.93-2.19,4.52-7.26,10.56-7.61q118.7-5.75,237.41-2.12a10,10,0,0,1,9.47,6.49l70.3-4.3-.69,1.36-69.06,4.45c-12.86,38.76-50.06,87.3-69.38,91.06-27.79,5.7-56.49,8.44-85.5,10.13a416.46,416.46,0,0,1-69-9.5c2.87-7.56,9.59-10.68,19.49-10.14,35.08,6.1,65.88,6.47,102.35.78,25.58-2.89,43.53-5,52.47-15.15,12.93-14.2,21.84-28.75,27.71-43.56,2.31-7.71,1.51-12.17-3.86-11.89h-5.61l-4.87.28-4.48,23.32-3.39,17.62c-1.22,5.91-6,4.34-13,4.6l-149.08.14q-6.87-.41-5.89-6.35l9.52-40.38c-12.75,2.26-25.25.76-37.38-6.23-4.57-4.87-8.84-6.51-15.22-4.12-.24.09-3,3.18-3.5,3.15l-29.41-1.81-.2-1.28Z" transform="translate(-15.97 -228.61)"/><path class="cls-1" d="M93.69,487.45l29.51,2.45c-2.86,45.9,4.45,88.42,44.12,93.81l52.53,22.54,65.88-3.72c32-2.5,59.36-5.83,77.6-15.43-10.44,8.32-20.13,12.46-29.34,14a1096.32,1096.32,0,0,1-114.25,11.27c-30.22-3.44-59.78-7.48-86.61-14-14.2-5-21.17-13.59-25.85-22.88C98.58,548.38,93.18,519.49,93.69,487.45Z" transform="translate(-15.97 -228.61)"/><path class="cls-1" d="M1865.21,816.07V781.32c.12-.37.24-.74.35-1.11,0-.21-.1-.4-.35-.57V772l2.63,2.23a100.78,100.78,0,0,0,6.07-27.51l-8.7,1.35V721.33l10,3.27a137.76,137.76,0,0,0-1.25-29.29l-8.76,6v-5.67c1.27-1,1-2.13,0-3.1V689.8l3.83,1.41c4,.86,4.18-2.57,1.41-3.68l-5.24-2.16v-82a141.45,141.45,0,0,1,9.9,16.07q4.52,15.48,22.4,20.34l5.86,4.6a223.38,223.38,0,0,1,6.47,26.82c-16.36,8.23-12.65,10.07,3.28,11.46q3.69,22.89-5.54,48.54-9.28,26.05-4.29,50.72c-7.3,1.12-13.87,4-19,10.3l30.8-1C1900.78,806.2,1884.46,815.36,1865.21,816.07Zm0-212.73v82l-4.14-1.7a2.9,2.9,0,0,0-2.25.47V654.43h0c1-1.85.91-3.15,0-4v-53l1.15-.57.06,0,0,0h0c1.74,2.08,3.46,4.28,5.14,6.62Zm0,86.46v2.69c-1.81-1.81-5.91-3.17-6.29-2.94l-.1.06v-2.18h0l6.38,2.36Zm0,5.79v5.67l-2.27,1.54q0,9.36,0,17.79l2.27.74V748l-3.63.56a52.59,52.59,0,0,1-2.76,13.15V699.84l5.55-3.69a5.55,5.55,0,0,0,.84-.56Zm0,76.38v7.67c-1-.66-3.7-1-6.39-1v-12.1l6.39,5.42Zm0,9.35v34.75c-1,0-2,0-3.06,0q-1.59,2.58-3.33,5.15v-25a94.48,94.48,0,0,0,6.39-15Zm-6.39-185.76v-.29l.18.2Zm0-.29v.29l-4.44,2.16v-7.2c1.5,1.5,3,3.07,4.44,4.75Zm0,2.08-4.44,2.23V649c2.11.18,3.62.62,4.44,1.4v-53Zm0,57.08v29.71a2.26,2.26,0,0,0,0,3.29v2.18l-4.44,2.74v-32q2.28-2.88,4.44-6Zm0,45.41v61.91c-.16.46-.33.92-.5,1.37l-3.94-3V702.8l4.44-3Zm0,66.71-4.44-3.77v16.31a19.83,19.83,0,0,1,4.44-.44v-12.1Zm0,29.74v25c-1.41,2.1-2.9,4.19-4.44,6.26V804.08C1855.92,801.53,1857.41,799,1858.82,796.29Zm-4.44-205.77v7.2l-5.78,2.8.83,1.53,5-2.47V649a38.84,38.84,0,0,0-4.41-.07c-3.93.7-4,2.15-2,3.6l4.76,1.74a154.17,154.17,0,0,1-12.17,14.52V579.61a74.24,74.24,0,0,1,13.81,10.91Zm0,69.88a127.42,127.42,0,0,1-13.81,14.78v8.18l2-.88c3.61-1.22,5,1.4,2.81,3.51l-4.83,1.72v15.44l3.33-1.29c1.83-.78,2.8,1.67,1,2.63l-4.32,1.69v2.36l5.63-2.43c2.14-.85,2.51,2.32,1,3.09l-6.67,2.65v2.78c3.65-2.29,8.34-3.33,10.63-2.12,2.42,15.69,2.36,27-.17,40.71a4.89,4.89,0,0,1-2.21,3.27l.46-.22,5.1,3.87V702.8l-2,1.32c-10.15,2.06-6-6.12-4.86-7.55l6.86-4.22v-32Zm0,102.38v16.31c-1.09.27-1.81.66-1.84,1.19-2.67,9.71-5.62,13.81-9.08,19.29-1.91,2.57,6.64,11.4,7.67,9.79,1.1-1.78,2.18-3.53,3.25-5.28v23.44A117.09,117.09,0,0,1,1840.57,843V823a63.76,63.76,0,0,0,6.49-7.23c1.84-2.07,1-3.38-2.3-4.2l-4.19-1.18V781.65a6.35,6.35,0,0,1,1.3.17c1.65-1,1.23-2.45-1.3-3.63V756.53a8.89,8.89,0,0,0,7.09.55l6.72,5.7ZM1840.57,749v-2.47l.62.46c-.41-10.72-1-18.51.14-23,2.06-8.23,6.58-5.41,5.21,9.28-.43,4.63-.94,10.5-2.21,17.59C1844.3,751.22,1842.71,750.36,1840.57,749Zm0-169.4v89.18a133,133,0,0,1-13.7,12.53V657.91a23.31,23.31,0,0,0,7.71-4c.67-2.12-.2-3.4-2.58-3.83l-5.13,2V573.51a58.1,58.1,0,0,1,13.7,6.1Zm0,95.57a152.81,152.81,0,0,1-13.7,11.1v22.17l13.7-5.3V687.71l-3.21,1.14c-1.46.62-3.81-1.53-2-3.24l5.18-2.25v-8.18Zm0,31v2.36l-13.7,5.93v-2.93l13.7-5.36Zm0,5.67-13.7,5.44v22.4l4,2.67c2.43,1.82,6.63,4.73,9.7,6.65v-2.47c-2.35-1.75-4.88-3.44-5.21-3.67a23.06,23.06,0,0,1,.15-2.6l1.13-22a12.56,12.56,0,0,1,3.93-3.68v-2.78Zm0,44.68v21.66a16.57,16.57,0,0,0-4-1.17l-9.74-10.09V746.62l12,8.81a10.46,10.46,0,0,0,1.73,1.1Zm0,25.12c-2.33,0-2,2-1.89,4.09-2.66,1.31-4.51-1-5.74-3.47l-6.07-5.94v44.33a40.9,40.9,0,0,0,8.79-8.83,4.4,4.4,0,0,1,4.51-1.54l.4.11V781.65Zm0,41.36v20a73.32,73.32,0,0,1-13.7,10.15v-21A45.21,45.21,0,0,0,1840.57,823Zm-13.7-249.5V652l-4.73,1.83q-3.54,2.68,1.38,4.68a17.39,17.39,0,0,0,3.35-.6v23.41a121.18,121.18,0,0,1-18,11.82V678c2.35-5.37,4-12.73,4.54-23.22l1-37.77-5.52,2V571.3a54.77,54.77,0,0,1,18,2.21Zm0,112.77c-5.82,4.21-11.87,8-18,11.67v15.7l2.73-3.4-1.38-5.86c-.36-1.56,3.17-2.58,4.07-1.1l2.68,5.85c1,2.36,2.71,1.93,4.59,1.39l5.35-2.08V686.28Zm0,25.26v2.93l-5.06,2.18c-11.73,4-8.68-.28-1-2.74l6.06-2.37Zm0,5.75L1812.39,723c-3.41,1.79-4.08,3.89-.77,6.45l15.25,10.2v-22.4Zm0,29.33v20.31l-12.73-13.19c-4.2-3-.12-16.53,8.46-10.26l4.27,3.14Zm0,29.71-18-17.65v68.89a37.77,37.77,0,0,0,18-6.91V776.33Zm0,55.86v21a48,48,0,0,1-14.13,5.39l-3.91.4V835.11a39.38,39.38,0,0,0,18-2.92Zm-18-90.73V737.4A3.61,3.61,0,0,1,1808.83,741.46Zm0-170.16V619l-7.11,2.56a221.75,221.75,0,0,1-.17,32.1l6.27,2.85c-1.67,8.06-1.06,22.83-8.55,28.41l-2.64,2.3V573.06a62.55,62.55,0,0,1,12.2-1.76Zm0,106.72a27.93,27.93,0,0,1-6.23,9.11l-6,4.43v50.32a20.82,20.82,0,0,0,4.72,1.32c4.08.38,6.44-.42,7.48-1.74V737.4c-1.61-2.9-6.11-5.64-11.62-4.89,3-3.86,3.25-9.19,1.67-14.28l8.2-2.41,1.75-2.17V698l-.66.38-4.87-2.43q2.81-1.3,5.53-2.76V678Zm0,80.66v68.89l-1.51.16a1.72,1.72,0,0,0-1.61,1.64l0,3.58a2.34,2.34,0,0,0,1.94,2.07l1.16.09v23.83c-4.12.39-8.17.72-12.2,1V829.85l.35.22c1.81.88,2.58,0,2.94-1.57,1.25-10.06,2.6-20.28,4.31-30.79.26-2.91.25-4.64-2.23-4.63l-5.37.55V773.8l1.77,12.11c-1.81,1.36-2.66,3.63-.27,4.75l5-.31c1.42-.42,3-2,.1-5.61l-3.88-27.56c-1.07-4.28-.26-9.93,5.54-2.36Zm-12.2-185.62V687.25l-2.83,2.47,2.79,1.87,0,0v50.32a12.52,12.52,0,0,1-4.46-3.87l-1.83,1.06v-5.6c.08-.06.16-.14.24-.21,2-1.84,4.26-4.38,3.8-9.33s-3.68-3.69-2.88-.12a6.72,6.72,0,0,1-1.16,4.65V574.92c2.11-.73,4.2-1.35,6.29-1.86Zm0,200.74v19.83l-.65.07a11.72,11.72,0,0,0-3.61,4.44,81.88,81.88,0,0,1-2,18.67V750.68a3.24,3.24,0,0,1,3.31,2.69l.64,4.36c-3.59,3-1.68,5.35.92,6.3l1.42,9.77Zm0,56.05v30.06q-3.15.2-6.29.33V825.79l6.29,4.06Zm-6.29-82.28v-4.05l3-.89a2,2,0,0,1,2,2.71A15.3,15.3,0,0,1,1790.34,747.57Zm0-172.65V728.46a18.86,18.86,0,0,1-2.76,3.53s-2,.9-1.09,1.86,2,1.23,3.85-.38v5.6l-1.65,1c-1.72,2-1.56,3.87,1.44,3.54l.21-.06v4.05a10,10,0,0,1-1.93.23c-2.27-.36-4-2.06-4.75-6.5V704.9a3.26,3.26,0,0,0,1.56-.74,2.73,2.73,0,0,0,.7-3.77,2.36,2.36,0,0,0-2.26-.73V577.57c2.23-1,4.46-1.89,6.68-2.65Zm0,175.76v66.13q-.61,2.66-1.41,5.2c.1,1.58.35,3,1.15,3.61l.26.17v34.45q-3.35.15-6.68.23V788.41l2.76-7.83c2.25-7.2,2.08-15.79.18-27.49C1786.73,751.51,1788.57,750.59,1790.34,750.68Zm-6.68-173.11V699.66a3.25,3.25,0,0,0-1.57.74,2.73,2.73,0,0,0-.7,3.77,2.34,2.34,0,0,0,2.27.73v36.4c-.11-.66-.2-1.37-.26-2.15-1.85-1.19-3.92-1.28-5.21.1V726.9a2.31,2.31,0,0,0,2.38-1.41l.79-7.19c-.19-1.44-1.68-2.24-3.17-2.31V580.24c1.83-1,3.65-1.86,5.47-2.67Zm0,210.84v72.06c-1.83,0-3.65.08-5.47.1V803.88l5.47-15.47Zm-5.47,1.49,1.45-4.81c3.21-11.7,4.92-17.41.65-40a6.44,6.44,0,0,1-2.1-1.24Zm0-209.66V716c-1.46-.07-2.93.58-3.16,2l1.54,7.45a2,2,0,0,0,1.62,1.41v12.35a4.33,4.33,0,0,0-.9,1.59,2.64,2.64,0,0,0,.9,3.06v46l-3.52,11.78c-1.76,4.23-3.49,4.32-5.7,3.56v-70a30.71,30.71,0,0,0,4.89-6.23l-4.89.22V707.36l5.22-1c1.63-.4,1.46-2.24-.32-2.8a20.11,20.11,0,0,0-4.9.78V615.7c.86-1.15,1.72-2.28,2.61-3.41-.89.65-1.75,1.33-2.61,2V585.79q4.62-3.09,9.22-5.55Zm0,223.64-2.25,6.38c-3.34,2.74-5.35,1-7-.8v51.08q4.63.08,9.22,0ZM1769,585.79v28.53a67.3,67.3,0,0,0-5.94,5.54V590.35c.7-.64,1.41-1.27,2.13-1.9q1.9-1.38,3.81-2.66Zm0,29.91q-3.12,4.2-5.94,8.6v54.53a9.71,9.71,0,0,1,4.57,2,8.53,8.53,0,0,1-4.57,1.85v46.77l5.94-.26V707.36l-.5.1c-.94.5-2-1.55-1.17-2.5a16.44,16.44,0,0,1,1.67-.61V615.7Zm0,119.53v70l-.59-.22c-1.39-1.35-2.85,1.36-1.42,2.3a15.75,15.75,0,0,1,2,2.14v51.08q-3,0-5.94-.14V735.81l5.55-.19ZM1763,590.35v29.51c-13.73,14.44-22.37,35.5-27.15,53.91V625.65l1.92-3.38c-.65,1.1-1.29,2.2-1.92,3.31v-5.47c.65.71,1.28,1.43,1.92,2.16,7-11.78,15-22.6,25.23-31.92Zm0,33.95c-13.82,21.52-22.25,46.26-27.15,73.3V858.68c9.35.86,18.32,1.44,27.15,1.72V735.81l-13.57.47c-2.57.21-4.14-.57-5-2q-3.11-42.29,16.18-81.57c-9.06,25.09-13.62,50.79-11.31,77.41l13.73-.61V682.71c-4.19.25-6.29-3.84-2.85-4.17a18.53,18.53,0,0,1,2.85.29Zm-27.15-4.19v5.47c-.65,1.15-1.29,2.3-1.92,3.46l1.92-3.39v48.12c-1.47,5.68-2.57,11.1-3.35,16V631.7c.47-.89,1-1.77,1.43-2.65-.47-.54-1-1.06-1.43-1.57V616.57c1.13,1.14,2.24,2.32,3.35,3.54Zm0,77.49V858.68l-3.35-.31V721.1Q1733.82,709.1,1735.88,697.6Zm-3.35-81v10.91c-22.57-24.23-53.18-24.86-85.36-20.84-12.05-1-24.09-3.44-36.13-4.48l-1.67-.13V593.5l36.42,1.8c5.91-.14,11.44.58,17-.22,30.28-4.37,51.11,2.67,69.72,21.49Zm0,15.13c-2.29,4.33-4.48,8.77-6.62,13.28-8.37-22.07-21.46-33.54-66.19-29.73-4.43,1.44-24.54,1-50.35-.19V794.78l57.09,1.34c3,2,6.1,5.74,4.31,5.71q-30.7-.47-61.4-.8v22.38l73-1c10.68,17.35,27.14,32.26,41.52,35.05q4.41.48,8.69.9V721.1c-.2,1.91-.4,3.83-.57,5.76l-.82-19.88a94.85,94.85,0,0,1,1.39-17.21Zm-123.16-38.2V602c-8.66-.59-17.33-.13-26-.87l-63.63-2.44V587.56l85.7,5.75,3.92.19Zm0,21.56V794.78l-89.62-2.09V738.43q35.79-.06,71.57-.76c26.36-1.88,20.61-4.81.27-8.22q-35.82-4.71-71.84-8.68V610.45c28.37,1.35,62.21,3.37,89.62,4.61Zm0,186v22.38l-66.25.9q-11.68,0-23.37,0v-24Q1564.54,800.55,1609.37,801Zm-89.62-213.47v11.16l-35-1.35,12.55,12.13c6.86.24,14.42.57,22.42,1V720.77q-27.62-3-55.36-5.59c-13.85,3.19-24,7.19-21,14.08-2.54,0-4.68,0-6.45.09V712.83l27.4,2.35q-13.68-1.26-27.4-2.39V604.2l26,1.06L1451,593l-14-.58V582.9l3.35.14,40.13,1.88,39.28,2.64Zm0,150.87v54.26L1437,790.75V737.67l6.52.13h0l-6.47-.15v-2.28q2.74,1.13,6.57,2.43,38.09.71,76.19.63Zm0,62v24q-41.49.09-82.76.54v-24.5Q1478.34,800.23,1519.75,800.38ZM1437,582.9v9.53l-9.32-.38v-9.54l9.32.39Zm0,21.3V712.79l-8.37-.68,8.37.72v16.52c-9.07.48-8.31,2.62,0,6v2.28l-9.32-.21V713.16a11.28,11.28,0,0,0,.93-1l-.93-.07V603.82l9.32.38Zm0,133.47-9.32-.2v53.06l9.32.22V737.67Zm0,62.71v24.5l-9.32.1V800.41Zm-9.32-217.87v9.54l-22.42-.93v-9.53l22.42.92Zm0,21.31V712q-11.2-.88-22.42-1.69V602.91l22.42.91Zm0,109.34v24.28l-15.84-.36,15.84.39v53.06l-22.42-.52V736.93l6.55.15h0l-6.58-.19v-2.47c3.86-1.73,3.87-2.94,0-3.63V719.18c10.89-.47,18.66-2.35,22.42-6Zm0,87.25V825l-22.42.29V800.54Zm-414-131.1c3.94,8.23,6.46,15.3,9.94,26.32l-2.33-2.11c-2.28-6.29-4.83-12.41-7.61-18.25v17.26a129.28,129.28,0,0,1,10,26.75c.42,1.54-.19-21.54.54-20.08,4.12,8.35,6.77,41.36,7,52.42a171,171,0,0,1-6.59,47.15l-2.36.4a192.92,192.92,0,0,0,5.47-33.75l-2.45-1.24-3.26.72c-1,13.05-4,23.46-8.27,32.23.68-2,6.06-32.21,3.86-32.33-1.63-.09-.62-2.52,3.82-3.69l5.94-.7c.76-.32,1.3-.93,1.44-2.68l.15-6.36c-.08-2.31-1.22-3.56-3.44-3.73l-4.6-1.06c-2.16-.49-2.36-.08-2.34-2.3a153.79,153.79,0,0,0-4.86-41.63V749.7l6.94,1.14c3.85.47,5.69,3.58-.31,3.48l-6.63-1v43.85l0,0,0,.06v5.19l3.55,1.79c.83,1.05-.64,3.73-1.39,3.33l-2.16-1.12v12.43c4.78-9.52,7.61-16.58,7.63-16.71,1.12-2.36,3.08-3.47,2.12,1.44.21.35-3.53,10.38-9.75,22.56v32.83a108.8,108.8,0,0,0,9.07-17.68l8.25-2.12q94-5.89,189.4-9.28C1247,848,1316,845.66,1345.64,826.31q29.74-.62,59.61-1V800.54q-161.49,1.05-322.36,7.47c-2.75.11,3.22-5.56,9.3-6.3l151.27-11.21c32.3-2.81,64.38-2.91,96.38-2l65.41,1.54V736.93l-6.59-.15.24-.08,6.35.19v-2.47a59.34,59.34,0,0,1-6.35,2.28q-28.49-.87-57-2.22c-87.58-3-175.55-11.65-263.75-23.86,3.66-8,7.55-24.39,56-20.46l208.6,16.48q31.32,1.49,62.44,3.71V602.91L1186.78,594c-49.9,3.21-135.39-17.15-148.79,13.78a197.17,197.17,0,0,0-24.33-23.14v84.65Zm391.59-87.72v9.53l-177.74-7.35c-12.22-1.37-42,.83-63.33.7-79.53-12.77-125-13.42-142.32-4l-8.2-10.64v-1.34c12.82-8.32,73.66-9,145,3.61,32.41,3.66,45.57-1,71.39,2.25l175.16,7.26Zm0,137.59v11.61q-4.43-.78-15.52-.65a286.91,286.91,0,0,1-45.76-.55c-62.4-3.52-125.65-8.53-190.52-16.37q-67.52-14-.1-11.43L1343.61,714C1368.63,717.74,1390,719.83,1405.25,719.18ZM996.41,640.93a115.2,115.2,0,0,1,8.65,12.19c3.63,6.41,6.35,11.49,8.6,16.19V584.66a163.94,163.94,0,0,0-17.25-12v68.31Zm17.25,34.34v17.26a108,108,0,0,0-10.77-16.71,118.5,118.5,0,0,1,10.77,26.83V749.7q-8.62-1.4-17.25-2.68v-2.28c3.23,1.38,7.68,2.17,7.78.24a130.44,130.44,0,0,0-7.78-42.13V663.09c2-2.65,4-5.29,6.16-7.92a180.75,180.75,0,0,1,11.09,20.1Zm-17.25-18.55v-10c1.29,1.73,2.53,3.52,3.72,5.39l-3.72,4.61Zm17.25-88.25v1.34l-.67-.87c.21-.16.43-.32.67-.47Zm0,184.86v43.85l0,.05,0,0v5.19l-17.25-8.67v-5.6l3,.33,2.83-18.44c.78-3.47.58-4.79-.18-4.91l-5.62-.26V750.75l17.25,2.58Zm0,53q-8.62-4.44-17.25-8.7v49.89a203.11,203.11,0,0,0,17.25-28.76V806.38Zm0,19.72v32.83A140.49,140.49,0,0,1,996.41,881V853.57C1003.13,845.26,1009.07,835.09,1013.66,826.1ZM968.18,616.55a106.21,106.21,0,0,1,28.23,24.38V572.62a131.62,131.62,0,0,0-28.23-13v56.89Zm28.23,46.54C992.65,668,989,673,985.16,678a172.87,172.87,0,0,1,11.25,24.9V663.09Zm0,81.65V747q-14.13-2.12-28.23-4V697.25l2.66-2.67c3.48-3.55,6.68-7.19,9.71-10.87,7.64,20,12.23,38.72,12.54,58.51,0,.76,1.48,1.74,3.32,2.52Zm-28.23-58.31V656.82c.29-.17.59-.34.89-.53,2.3-1.43,3.76-3,3.27-3.5s-2.2.08-4.16,1.16V626.34l.39-1c.59-1.54,1.47-2.49,2.82-2.5,9.21,6.74,17.84,14.3,25,23.89v10l-23.55,29.12c-1.09,1.66-2.52,2.25-4.68.59Zm28.23,64.32v14.08l-1.68-.08c-.94.08-1.61.94-2,2.58l-2.44,15.27c-.4,2.69-.11,4.46,1.2,5l4.94.53v5.6l-12.32-6.19a4.13,4.13,0,0,1-3.1-3.41c-.28-2.35-.4-3-2-4l-10.79-4.2v-25l9.63,1.14c4.18.33,7.1,1.26,9.79-.15.85-1.32,2.68-2,6-1.6l2.85.43Zm0,46.93c-9.36-4.59-18.75-9-28.23-13v51.29a67.72,67.72,0,0,0,13.56-25.55c.73-2.18,1.69-2.52,2.87-2.24l4.54,1.5c1.1.23,1.3,2.18.54,3.5a69.32,69.32,0,0,1-21.51,26.7v31.55c4.87-2.6,10.89-6.58,19.06-13a97.77,97.77,0,0,0,9.17-10.81V797.68Zm0,55.89V881c-8.94,9.34-18.81,17.06-28.23,21.84V875.11a132.42,132.42,0,0,0,17.82-11A66.87,66.87,0,0,0,996.41,853.57ZM957.94,611.14a114.15,114.15,0,0,1,10.24,5.41V559.66a102,102,0,0,0-20-4.23c-3.22-.13-6.36-.16-9.42-.11v51.11a82.75,82.75,0,0,1,19.14,4.71Zm10.24,86.11c-9,9-16.76,15.79-29.38,27.67v12.83l3,2.07q13.17,1.51,26.36,3.24V697.25ZM938.8,712.89v-34.3c.45-.65.9-1.29,1.36-1.93,3.25-5,6.59-7.22,10.14-3.57a5.8,5.8,0,0,0-1.94-5.91,296.68,296.68,0,0,0,19.82-40.84V654c-.29.17-.59.34-.89.53-2.29,1.43-3.76,3-3.27,3.49s2.2-.07,4.16-1.15v29.61c-.24-.19-.49-.4-.75-.64-11.14,13-19.43,19.51-28.63,27.1Zm0-40.17v-38.6a9.55,9.55,0,0,0,1.28-.64c2.23-1.36,3.46-3.4,2.75-4.57-.57-.95-2.24-1-4-.31V609.85c9.12,1.54,19.06,4.11,26.94,10.84a299.13,299.13,0,0,1-26.94,52Zm29.38,78.21v25l-23.24-9.06c-2.9-1.36-4.74-3.49-4.28-7.3l.89-5.77c.9-3.39,4.51-5.07,8.88-5l17.75,2.12Zm0,33.7c-9.68-4.16-19.46-8-29.38-11.44V803c8.2,16,15.86,37,21.91,70.22.2,1.46-2.42,2.14-2.89,1.52a4.52,4.52,0,0,0-3.81-2.54l-6-1c-1.38.16-2.3-.6-2.91-2l-6.33-31.29v41.23a57.78,57.78,0,0,0,8.37-1c7.17-1.85,12.21-2,21-6.7V839.83a78.75,78.75,0,0,1-9.13,5.91,113.7,113.7,0,0,0,9.13-9.82V784.63Zm0,90.48v27.73a51.48,51.48,0,0,1-11.62,4.37c-6.2,1.15-12.1,2.12-17.76,2.95V882.27a78.76,78.76,0,0,0,21.14-3.72,66.91,66.91,0,0,0,8.24-3.44ZM938.8,833v-8.58a4.53,4.53,0,0,0,2.31,1.35l2.23.33c1.43.24,2.32,1.29.66,3l-3.88,2.67A2.9,2.9,0,0,0,938.8,833Zm0-108.11-4.15,3.92c-2.71,2.26-3.35,1.52-3.29-3.94L928.47,719v18.4a8.81,8.81,0,0,0,.66-2.94,3.39,3.39,0,0,1,4.16-.53l5.51,3.78V724.92Zm-10.33-10.29,4.2,3.41c2.11-1.82,4.14-3.51,6.13-5.15v-34.3c-3.59,5.16-6.83,10.37-10.33,15.55v20.49Zm0-26.52V616l3.43,0c5.74.19,5.17-2.87,5.69-6.28l1.21.2V628.6a8.59,8.59,0,0,0-1.29.64c-2.23,1.36-3.46,3.4-2.75,4.57.57,1,2.24,1,4,.31v38.6q-5,7.77-10.33,15.39Zm0-82.13a68.45,68.45,0,0,1,10.33.45V555.32q-5.31.09-10.33.53V606ZM938.8,773.19V803a191.54,191.54,0,0,0-10.33-17.58V771.2a11.08,11.08,0,0,1,5.84.47l4.49,1.52Zm0,51.26V833a5.07,5.07,0,0,0-.27,3.57l.27,1.29v41.23a57.63,57.63,0,0,1-10.33-.4V803.94l9.18,18.76a6.81,6.81,0,0,0,1.15,1.75Zm0,57.82v27.89q-5.29.76-10.33,1.37v-29.6a76.26,76.26,0,0,0,10.33.34ZM928.47,759.58v-12q7.8,2.92,4.77,9A18.09,18.09,0,0,1,928.47,759.58Zm0-40.54-3.61-7.35,3.61,2.94V694.14a124.56,124.56,0,0,1-11.53,14.93,21.32,21.32,0,0,1-1.86,1.81v25.31c1,.69,1.34,2.4.87,4.58l1.06,1.5c3.56.09,3.33,1.76,1.39,4.14-1.43.61-2.52.54-3.32-.12v25.14c.85-.21,2.23.12,3.2-3a9.18,9.18,0,0,0,1.92-7,2.74,2.74,0,0,0,3-.56,17.48,17.48,0,0,0,5.25-1.27v-12a30.93,30.93,0,0,0-4.78-1.3,1.9,1.9,0,0,1-.49-3.49,11.16,11.16,0,0,0,5.27-5.36V719Zm-13.39-12.71V611.19c1.18-.32,2.38-.63,3.6-.91q9.33-1.51.5,2.43c-.74,1.63-.53,3.3.49,3.29l8.8,0v72.16q-6.45,9.2-13.39,18.22Zm0-98.55a67.7,67.7,0,0,1,13.39-1.8V555.85a134.26,134.26,0,0,0-13.39,1.83v50.1ZM928.47,771.2v14.21c-.47-.72-.94-1.44-1.41-2.14-3.23-8-1.67-11.25,1.41-12.07Zm0,32.74-8.68-17.74a3.7,3.7,0,0,0-4.57-2.21l-.14,0v22.28l3.09,12.52c4,3.24,2.27,6.19.57,8.86l1.9,49.16-.53.3a77.49,77.49,0,0,0,8.36,1.57V803.94Zm0,78v29.6c-4.6.54-9.05,1-13.39,1.32V879.48a83.15,83.15,0,0,0,13.39,2.45Zm-13.39-6.18v-19.7L916,873l.15,3.14-1.11-.36Zm0-97.07v-2A1.92,1.92,0,0,1,915.08,778.68Zm0-67.8a20.52,20.52,0,0,1-3,2.12v19.46c1,.45,1.9,1.26,1.69,2.14-.1.43-.77.76-1.69,1v.71a3.07,3.07,0,0,1,3-.09V710.88Zm-3-.69q1.5-1.92,3-3.86V611.19c-1,.28-2,.57-3,.88v98.12Zm0-101.64c1-.28,2-.53,3-.77v-50.1c-1,.19-2,.39-3,.6v50.27Zm3,137.74v25.14c-.76.18-1.09.8-.34,4.69a4.28,4.28,0,0,1,.34.57v2a4.19,4.19,0,0,1-2.09,1.46l-.9,0V741.67a4.12,4.12,0,0,0,1.29.38c.26,2.05.8,3.51,1.7,4.24Zm0,37.74v22.28l-3-12.13v-9.44l3-.71Zm0,72v19.7c-1-.32-2-.66-3-1V818l.62,2.2.59,4.54,1.78,31.3Zm0,23.43v33.37l-3,.22V878.63C913.09,878.93,914.09,879.21,915.08,879.48Zm-3-166.48a14.1,14.1,0,0,1-3.34,1.45c1.12-1.42,2.23-2.83,3.34-4.26V612.07a79.35,79.35,0,0,0-15.77,6.9v16.15l8.21,26c2.51,19.49-4.66,12.25-7.33,10.08l-.88-.61v40.9l.9-.86c.5-3.52,1.73-5.34,4.46-6.07l-.87-25.88c-.08-1.93,5.12-3.68,5.13-1.4l.46,27.64a44.34,44.34,0,0,1-10.08,12.81v6.57c2.17-.21,4.73.68,7.44,4,7.56,9.16,5.56,4.12,6.64,3.89a3.14,3.14,0,0,1,1.69.32V713Zm-15.77-48.25V650.67l3.45,10.92c1.68,7.84-1.77,4.06-3.45,3.16Zm0-49.83V562.76a121.2,121.2,0,0,1,15.77-4.48v50.27a84,84,0,0,0-15.77,6.37Zm15.77,120.65v.71a9.69,9.69,0,0,0-1.06.54c-1.29,2.17-.57,4.06,1.06,4.85v38.51c-1.56.05-2.92-.07-3.25-1.4l-6.31.26c-1.12-.39-1.47-1.24-1.06-2.54.42-5.1-4.66-2.51-3.48.69l3.14,2.53,1.45,4.28,9.51,34v56.73a98.86,98.86,0,0,1-15.77-7.29V766.94a14.68,14.68,0,0,0,1.77-1.53c1.72-1.66,2.06,0,3,.18s1.43,1.71,4.52,1.31c1-.13.89-1.13,1.11-2.06,6.42-4.8,1.59-5.12-1.36-3-.25.09-.23-.49-.32-.73-1-2.58-3.9-.74-3.9.34s-3.26,1.61-4.46.06a2.6,2.6,0,0,0-.4-.41v-5.28c2.09,2.1,4.78.51,5.32.08s1.6-2.92,2.58-2.92,1.49-2.92,1.37-3.27,1.09-2.29,2.07-2.29,3.37-4.41-.81-2.81-3.61,1.44-3.61,1.44a1.41,1.41,0,0,1-.8,2.4c-2.17.75-2.23,1.32-1.89,1.78s-1.89,1-1.89,1l-.91.34a5.63,5.63,0,0,0-1.43.79V740.14l.43-.2c2-.81,4.5,1.5,7,.58s-.46-2.65-4.72-3.69a6.65,6.65,0,0,0-2.74-.13v-6.37c1.61-2.33,4.06-.65,4.06-.65s.29,2.75,1.15,2.4,3,1.32,4.06,2.81c.77,1.05,4.33,1.19,6.5.68Zm0,49.17h0c-1.64.67-1.92,2.7-.81,6.11l.82,3.33v-9.44Zm0,93.89-.49-.16a99.1,99.1,0,0,1-15.28-6.55v41.82c5.13-.08,10.36-.3,15.77-.67ZM896.32,619c-1.45.83-2.88,1.72-4.27,2.64l4.27,13.51V619Zm0,51.6v40.9l-6.54,6.32-1.4-6.21v-86l7.94,25.13v14.08a1.3,1.3,0,0,0-.38-.16c-3.79-.19-4.65,1.74-3.79,3l4.17,2.93Zm-7.94-51.07V566c2.57-1.14,5.21-2.21,7.94-3.19v52.16q-4,2.1-7.94,4.58Zm7.94,98.21c-3.11,2.75-6.08,4.58-7.94,5v9.14c.7.19,1.17.35,1.46-3.3,0,0,2.62-3.89,6.48-4.26v-6.57Zm0,12.62v6.37c-2.59.44-4.24,2.45-5.55,3.59a9.19,9.19,0,0,0-2.39,2.8v-6.42a7.35,7.35,0,0,0,.77-.07,2.94,2.94,0,0,0,.48-1.91c-.2-.9,2.39-3.06,2.56-2.38s2.47.58,4.07-1.89l.06-.09Zm0,9.81c-1.46.72-1.19,1.4-2.67,2.57s-1.39,3.33-.93,5.41a5.6,5.6,0,0,1-.11,3.34l-3.11,1a25.56,25.56,0,0,0-1.12-5.59v12.46a2.63,2.63,0,0,1,1.81-1c2.19-.11,1.15,1.15.81,2.54s0,4.68-2.62,3.17v48.77c4.37,2.51,4.16,4.93.79,7.3a1.71,1.71,0,0,0-.79.58v.87a3.29,3.29,0,0,0,.87,1c1.12,1.29.71,2.42-.87,3.43v36.34q3.9,2.76,7.94,5.08V766.94c-.9.63-1.64.77-2.18,0a27.92,27.92,0,0,1-1.72-2.86l.52-1.72a2.18,2.18,0,0,1,3.38-1.27v-5.28c-.1-.1-.19-.21-.29-.32a2,2,0,0,1,.29-3.11V740.14Zm0,131.78v41.82q-4,.06-7.94,0v-47c1.75,1.24,3.57,2.45,5.45,3.65C894.59,870.91,895.41,871.41,896.32,871.92Zm-7.94-246.38-.49-1.54a89.92,89.92,0,0,0-8.12,6.62v57l1.09,1.63c1.81,1.62,3.11.55,3.11-2.28l-.38-1.17c-1.11-1.08-4.23-.35-2-5.94,2.42-3.66,3.84-2.07,4.57,3.12.63,5.36-.06,9.89-3.1,12.95a3.09,3.09,0,0,1-3.32-.58v49.32a48.9,48.9,0,0,1,5.33-1.55c.38.67,1.28,1.13.47,5a29.87,29.87,0,0,1-5.8,4.66v29.22l6.46-10.56c1-2,3.19-1.5,1.14,2.67l-6.68,11.64a6.32,6.32,0,0,1-.92,1.12v19.65c.42.23.85.48,1.27.75l7.18,5.55.16.09V764.08a7.26,7.26,0,0,1-.61-.41c-3.23-2.42-2.42-7.49-2.42-7.49s-.64-.18.78-.85,1.06-.64,1.41,2.81c.2,2,.33,1.8.84,1.23V746.91l-.15-.41a4.08,4.08,0,0,1,.15-3.41v-6.42c-1.35.05-3.92-.2-3.14-2.95,1-3.69,1.84-2.07,2.76-2l.38.08V722.7c-.9.2-1.54.07-1.82-.44l-4.17-18.57c-1.32-5.65,2.75-8,3.84-1.62l2.15,9.51v-86Zm-8.61-.06V570.21c2.77-1.52,5.63-2.94,8.61-4.26V619.5q-4.05,2.55-8,5.44l-.61.54Zm8.61,195.25v.87a.82.82,0,0,1,0-.87Zm0,5.3v36.34l-.75-.54q-4.14-3.33-7.86-6.94v-25.8a34.55,34.55,0,0,0,6.66-2.09,11.79,11.79,0,0,0,2-1Zm0,40.75c-3.06-2.16-5.92-4.4-8.61-6.72v53.46c2.85.12,5.72.19,8.61.23Zm-8.61-236.16A119,119,0,0,0,865.08,647V663l1.73,2.94,4.75,1-1.26,4.94,8.4,14.2,1.07,1.59v-57Zm0,64.71v49.32c-4.12,1.39-9.34,3.43-14.69,5.51V705.55a1.51,1.51,0,0,0,1.38.27c1.07-.4,1.32-2.39.56-4.44a5.65,5.65,0,0,0-1.94-2.74V670.81l13,22.55a7.51,7.51,0,0,0,1.66,2Zm-14.69-54.58V579.66a121.73,121.73,0,0,1,14.69-9.45v55.27a124.38,124.38,0,0,0-14.69,15.27Zm14.69,112c-3.87,2.38-7.5,3.42-11.36,5.77-1.58.46-2.23-1.23-.9-2.38l10.49-6c2.62-1.68.86-2.44-2-1.13-3.6,1.8-7.23,3.44-10.87,4.95v54.37a21.16,21.16,0,0,1,4.13-2.62c4-1.68,7.22-1,10.56.8V786.81a6.72,6.72,0,0,1-3.53,1.72l-4.54.05c-1.18-.5.61-4,2.68-3.87h3.68l1.71-2.78V752.72Zm0,76.37v25.8a104,104,0,0,1-14.69-17.67v-9.43c.28.1.57.21.87.34a25.48,25.48,0,0,0,13.82,1Zm0,31a99.43,99.43,0,0,1-14.69-15.62v68.12c4.9.43,9.78.75,14.69,1ZM865.08,647q-2.67,3.56-5.17,7.21l5.17,8.73V647Zm0,23.77v27.83a1.56,1.56,0,0,0-1.39-.27c-1.07.4-1.32,2.39-.56,4.45a5.67,5.67,0,0,0,2,2.73v44.61c-3.21,1.24-6.46,2.5-9.54,3.65V695.24a20.19,20.19,0,0,1,2.85-3,5,5,0,0,0,1.85-4.84l-4.7-9.61V662.44c.74-1.38,1.52-2.75,2.32-4.12l7.22,12.49Zm-9.54-16.56V587.48c3-2.71,6.2-5.33,9.54-7.82v61.09a123.3,123.3,0,0,0-9.54,13.5Zm9.54,99.66v54.37a22.21,22.21,0,0,0-5.35,6.42q-2.6,4.8-4.19,4v-28.4h.21c1.39,0,2.53-.85,2.53-1.9s-1.14-1.9-2.53-1.9h-.21v-29c3.19-1.13,6.37-2.33,9.54-3.63Zm0,73.88v9.43c-.91-1.37-1.78-2.77-2.61-4.18-3-4.3-3-7.25,2.61-5.25Zm0,16.65a104.23,104.23,0,0,1-9.54-15.25v82.42c3.2.36,6.37.68,9.54.95Zm-9.54-182a138.19,138.19,0,0,0-7.82,17.13v40.71c1.47-.07,2.69.88,3.21,4.19l3,1.76-.11,13.13-6.07,4.5v12.68c2.37-.76,5-1.7,7.82-2.73V695.24a35,35,0,0,0-2.1,2.88s-3.92,2.42-2.3-6.22.46-8.75.46-8.75-1.44-6.73,1.71-6.73,1.63.16,1.63.16l.6,1.22V662.44ZM847.72,669V595q3.74-3.87,7.82-7.54v66.77A132.87,132.87,0,0,0,847.72,669Zm7.82,88.52v29c-1.31.08-2.33.89-2.33,1.89s1,1.81,2.33,1.89v28.4a3.87,3.87,0,0,1-1.41-2.41l-5.3-10.61c-.38-.78-.75-1.59-1.11-2.41v-30.9a2.45,2.45,0,0,0,.78.12c1.89,0,2.69,0,4.69-1.89s1.78-2.87,1.78-4.93-1.49-3.26-3.26-1.72a5.41,5.41,0,0,1-4,1.09v-4.88q3.91-1.23,7.82-2.59Zm0,71.65-.16-.29-6.55-13.2c-.38-.81-.75-1.62-1.11-2.42v97.39c2.63.34,5.23.65,7.82.94Zm-7.82-149.62c-9,23.83-11.45,49.25-11.1,75.34l-2.84,2.36c-.91-17-1.85-53.34,13.94-88.25V595c-15.64,16.13-27.09,34.44-37.17,49.38-4.79,7.11-15.23,21.8-19.11,27.05l23.13,2c-12.1,33.31-36.81,68.75-33,118.51a89.57,89.57,0,0,1-12.21,19.76V870c17.47,19.12,40.76,34.59,58.46,37.8,6.89,1.08,13.48,2,19.91,2.86V813.28c-6.84-15.06-12-30.17-13.67-49.13l2.86-2.75c-1.22.1-2.18-.13-2.55-1.65-.14-2.43,1.57-2.69,3.54-2.25.32.86,1.34,2.26,3.93.59a51,51,0,0,0,5.89-1.55V743.86l-3.26,2.42v-3.74c-3.34.66-4.14-5.21,0-5.42l0-2.12c-5.08-.14-2.53-5,0-4.87l.07-2.68-.16-6a9,9,0,0,1,3.32-1.13V679.57Zm0,80.56V765l-.37,0a2.3,2.3,0,0,1-1.54,1.66c-1.38.51-1.15,3.83-.75,3.83s1.23,1.46,2.66,1.89v30.9c-3.8-8.56-6.7-19.28-9.55-34.17-.7-3.92,1-6,4.77-7.48q2.4-.71,4.78-1.46Zm-78.37-77.65V669l23,2.6,22.18,1.94L808.73,688Zm0-13.52v13.52l-165.84-23c-47-9.56-94.92-15.44-143.14-20.08a1078.89,1078.89,0,0,1,144.23,11L769.35,669Zm0,142.81V870c-8.53-9.34-15.68-19.56-20.1-29.65l-25.12-3.14C743,833.73,758,825.48,769.35,811.77Z" transform="translate(-15.97 -228.61)"/><path class="cls-1" d="M31.23,585.73c10.5,7.55,30.2,11.76,51.81,14.38l-43.67-3.59-11,31.91L395.88,637c-140.56,20.41-127.37,25.45-176.23,36.69-4.92,1.13-9.59,2.39-14.65,2.45L99.08,677.35c-29.12.29-68.63-1.5-79,15.79.44-14.74-2.1-37.65-3-60.07a16.34,16.34,0,0,1,.79-7Z" transform="translate(-15.97 -228.61)"/><path class="cls-1" d="M23.83,709.64c119.42-1.06,249.13,3.76,382.52,13.29,16.11,1.3,32,8.56,47.52,29l31.75,36.42-45-46.29c-8.42-8.95-23.65-12.21-40.06-12.87C276.64,718.92,37.9,712.1,27.24,715.2c-8,1.67-8.55,7.76-9.77,13.73C15.27,718,14.28,710.83,23.83,709.64Z" transform="translate(-15.97 -228.61)"/><path class="cls-1" d="M407.27,734.48c-122.93-6.7-245.91-13-369.47-15.38-9.85-1.46-16.94,1.85-20,12.1l.84,5.82c1.79-5.19,6.85-13,13.86-12.36l123.62,6.43c5.44.3,9.68,4.23,10.29,8.34L168,747,170,757c.19,1.93,3.35,3.82,5.14,3.7l24.07-.1c1.71,0,5.39-2.4,7.1-3.75l20.63-16.63c7.51-6.1,14.24-10.29,25.47-9.95L422,740.76c12,1.51,25.57,9.71,33.84,20.43C442.43,745.18,426.56,735.43,407.27,734.48Z" transform="translate(-15.97 -228.61)"/><path class="cls-1" d="M26.71,746a56.36,56.36,0,0,1,10.59-.21c3,.17,5,.66,5.86,3.51l4,13.52c.45,1.45,0,2.11-1.51,1.92l-12.78-1.83a6.46,6.46,0,0,1-4-3.82l-3.17-9.53C24.89,747.58,24.89,746.15,26.71,746Z" transform="translate(-15.97 -228.61)"/><path class="cls-1" d="M255,737.63l154.55,8.22c16.78.16,31.06,4.5,42.32,13.88l38.49,38.19-36.12-2L255,785V737.63Zm0,95.81a104.69,104.69,0,0,0,72.59,40.81c38,5.43,69.35,6,109.55-.24,7.31-1.82,37.57-18.34,50.11-37.82,47.43,0,94.93.7,143,6.93l106.5-4.33,1-5.12L544.31,788.38c-28.82-6.18-53.26-20.1-74.07-40.45-17.91-17.09-33.17-30.29-64.58-32.84-42.87-3.63-103.82-6-150.7-7.8V708l26.64.94,73.75,4.62c25.33,3.08,61.68,3,76,9.23,13,4.25,25.93,15.08,38.76,28.4,27.57,26.59,57.6,41.3,88.86,50l-68.64-3.33L255,785v48.45Zm0-132V696q39.18,1.71,78.37,4.25C301.46,700.7,275.65,701.07,255,701.43ZM22.78,733.19a9.55,9.55,0,0,1,4.63-1.82l117.38,3.82c8,.63,12.69,3.57,14.52,11.33L163.86,760c1.16,4,4,6.41,8.23,7.44a150.14,150.14,0,0,0,24.09,1.14c8.51-.75,19.19-8.62,31.38-21.36,9.27-7.22,16.44-10.57,27.19-9.58H255V785L240,784.17l1,24.25-111-26c-6-4.69-32.82-3.23-54-3.41l-37.48-.92a6.09,6.09,0,0,1-5.59-2.61l-4.69-10.21L48,768.5c1.07.18,1.45-.36,2.06-1.55l.88-1.49,1.38,1.81c.94,1.21,2.62,1.92,5.19,2.05l16.91.9.31,4.25c.07.75,5.48.83,5.48,0l-.1-37.8c-1.43.75-7.65,2.2-8.31,3.72a3.16,3.16,0,0,0-2.69-2.08l-21.92-.13c-1.21,0-1.82.82-2,2.15l-.56,2.94c-1.1-3.24-2.4-4.82-6.1-5.12L23,738.2c-2.06.07-2.62.32-3.41.83a10.75,10.75,0,0,1,3.18-5.84ZM255,696v5.4c-110.9,1.89-72.05,3.13,0,5.86V708l-122.08-4.33-96.26-1.24c-7.37-.39-16,1.94-20.32,7.08-.5-9,2.88-15.34,11.11-15.74,75.85-2,151.7-1.08,227.55,2.22Zm0,89L240,784.17l1,24.25a96.92,96.92,0,0,0,14,25Z" transform="translate(-15.97 -228.61)"/><path class="cls-2" d="M131.11,742.1c.17-1,6.27-1,6.37,0l-1.41,33.72h-3.36Z" transform="translate(-15.97 -228.61)"/><path class="cls-2" d="M257.42,747.27c.18-1,6.15-1.09,6.25-.07l-1.54,33.72-3.85-.06Z" transform="translate(-15.97 -228.61)"/><path class="cls-2" d="M328.56,750.66c.19-1,6.18-1.06,6.28,0l-1.54,33.72-3.39,0Z" transform="translate(-15.97 -228.61)"/><path class="cls-2" d="M342.59,749.73l33,1.27a14.55,14.55,0,0,1,9,3.51l23.17,24.75,2.73.3L392.6,759.72c-1.93-3.48-.07-7.37,4.75-7.64L431,754.3c7.24.63,13,2.16,18,6.55l19.75,18.41c3.81,3.49,5.18,5.11.21,5l-49.19.49-10.07-2.3-8.86,2-29.17.06c-4.6,0-6.69-1.49-9.46-4.11a161.06,161.06,0,0,1-23.34-25.08C337.9,754.52,338.51,750,342.59,749.73Z" transform="translate(-15.97 -228.61)"/><path class="cls-1" d="M349.86,757.8l20.93-.17c2.8-.08,4.9.6,6.32,2l12.77,13.53q5.31,4.59-2.59,4.36l-20-.15a11.36,11.36,0,0,1-4.77-3.09L349.75,762C348.21,760.16,345.41,758,349.86,757.8Z" transform="translate(-15.97 -228.61)"/><path class="cls-1" d="M401.32,759.85l25.22.3c3.64.13,8,.82,9.9,2.65l14.59,15c1.69,1.64.51,2.24-1.66,2.26l-27.59-.28c-2.44-.07-6.14-.71-8.35-3.67L401.11,764.2C399.19,761.81,398.66,759.91,401.32,759.85Z" transform="translate(-15.97 -228.61)"/><path class="cls-1" d="M594.76,538.55C623.51,566,653,580.7,687.09,586.16L833.1,612l-1,1.26-150-25.35c-46.14-9.79-51.1-16.71-89.45-48Z" transform="translate(-15.97 -228.61)"/><path class="cls-1" d="M900.66,439.7l2.27.09,9.85,15.39,9.19,12.1,14.08,19.16a222.92,222.92,0,0,0,31.49,35.72l34.27,35.52a359.78,359.78,0,0,1,36.59,49.25l-1,1.9c-9.7-14.67-20.22-28.53-31.15-42-8.94-10.49-18.94-20.88-28.45-30.24l-16.67-16.89-14-15a352.71,352.71,0,0,1-21.55-29.25L911.4,456C907.37,450.54,903.3,444.92,900.66,439.7Z" transform="translate(-15.97 -228.61)"/><path class="cls-1" d="M1298.4,452.82l2.93.1c.67,3,2.19,4,3.74,5.76L1319,478.34c4.85,8.28,9.06,16.45,13,24.27a97.33,97.33,0,0,1,6.9,30.54c-.11,13.54,2.1,27.08,5.36,40.62l2.16,26.75-2.36-.1-2.23-26.5a223.31,223.31,0,0,1-4.88-40.42c-1.08-17.6-8.45-35.59-19.35-53.8Z" transform="translate(-15.97 -228.61)"/><path class="cls-1" d="M974.2,469a366.8,366.8,0,0,1,73.12,1.84l2.53,2.42c-17.11-2-32.5-2.52-45.79-1.3a82,82,0,0,0-24.62,6.82c6.46,5.43,12.89,8.06,20.27,7l-2.24,5.55C982.1,486.41,974.14,479.31,974.2,469Z" transform="translate(-15.97 -228.61)"/><path class="cls-1" d="M1054.67,479.35c-14.2-2.55-29.9-1.91-44.4-.65l2.89,1.65,17.48.44-4.49,6.33,7.62,5C1042.89,490.56,1050.74,485.78,1054.67,479.35Z" transform="translate(-15.97 -228.61)"/><path class="cls-1" d="M1354.5,488.14a204.32,204.32,0,0,1,61,3l1,2.78c-17-3-35.56-2.31-55.68,2.38q4.15,7.33,13.37,10.52l-.22,2.84C1361.88,505.66,1355.22,498.59,1354.5,488.14Z" transform="translate(-15.97 -228.61)"/><path class="cls-1" d="M1420.48,500.47a133.81,133.81,0,0,0-47.4-.71l6.12,3.73c5.37-2.65,11.9-4.05,21.69-2l-2.86,6.19,3,5.17C1412.65,512.73,1419.29,508.72,1420.48,500.47Z" transform="translate(-15.97 -228.61)"/><polygon class="cls-1" points="544.86 524.58 765.46 563.66 761.84 570.75 544.86 524.58"/><path class="cls-2" d="M931.77,630.41c-4.54,2.76-7.06,6.93-5.61,9.31s6.31,2.08,10.85-.68,7.06-6.93,5.61-9.32S936.32,627.65,931.77,630.41Z" transform="translate(-15.97 -228.61)"/><path class="cls-2" d="M973.19,656.52c4.14-2.58,6.77-5.4,5.89-6.31s-5,.46-9.09,3-6.77,5.4-5.89,6.3S969.06,659.09,973.19,656.52Z" transform="translate(-15.97 -228.61)"/><path class="cls-2" d="M857.68,794c3.08,0,5.59-1.89,5.59-4.2s-2.51-4.19-5.59-4.19-5.59,1.88-5.59,4.19S854.6,794,857.68,794Z" transform="translate(-15.97 -228.61)"/><path class="cls-4" d="M1041.92,429.42q109.08,3.49,218.49,12.49c-18.76-56.13-41.88-109.94-71.11-160.52l-34.93-1.54c-72.31-4.59-121.89,5.43-157.14,28.8A670.09,670.09,0,0,1,1041.92,429.42Z" transform="translate(-15.97 -228.61)"/><path class="cls-2" d="M62.75,769.6v-2.84L73.44,768V756.54l-2-6.8a3.34,3.34,0,0,0-3.22-3l-5.46,0v-8.51l6.38,0a3.16,3.16,0,0,1,2.69,2.08c.66-1.52,6.88-3,8.31-3.72l.1,37.8c0,.81-5.41.74-5.48,0l-.31-4.25ZM37.3,745.81c3,.17,5,.66,5.86,3.51l4,13.52c.45,1.45,0,2.11-1.51,1.92l-9.4-1.35v3.16L48,768.5c1.07.18,1.45-.36,2.06-1.55l.88-1.49,1.38,1.81c.94,1.21,2.62,1.92,5.19,2.05l5.22.28v-2.84l-1.62-.18c-1.79-.29-3.09-1-3.67-2.17l-5.15-14.34c-.59-1.88-.23-3.22,1.4-3.23l9,0v-8.51l-15.54-.09c-1.21,0-1.82.82-2,2.15l-.56,2.94c-1.1-3.24-2.4-4.82-6.1-5.12H36.26v7.57Zm-1,17.6-3.38-.48a6.46,6.46,0,0,1-4-3.82l-3.17-9.53c-.84-2-.84-3.43,1-3.56a57.1,57.1,0,0,1,9.55-.28v-7.57L23,738.2c-2.06.07-2.62.32-3.41.83,0,0,.3,14.35,8.61,26.21l8,1.33Z" transform="translate(-15.97 -228.61)"/><path class="cls-2" d="M453.11,757.91q1.47,1.59,2.77,3.28c-.91-1.09-1.83-2.14-2.77-3.17v3l37.21,36.92L559,801.25c-31.26-8.72-61.29-23.43-88.86-50a181.61,181.61,0,0,0-17-15.78v15.46l.76,1,31.75,36.42-32.51-33.46Zm-2.76-2.81c1,.91,1.88,1.84,2.76,2.81v-3L440.65,742c-8.42-8.95-23.65-12.21-40.06-12.87-45.65-3.77-106.86-7.08-166.52-9.6v6.11c57.78,2.6,115.5,5.67,173.2,8.81,16.71.82,30.85,8.25,43.08,20.62-8.1-7.64-18.72-13.13-28.31-14.34L252.39,730.23A31.37,31.37,0,0,0,234.07,735v7.62a31,31,0,0,1,20.68-5l154.76,8.23c16.78.16,31.06,4.5,42.32,13.88l1.28,1.27v-3c-.91-1-1.83-2-2.76-2.92Zm2.76-19.65v15.46c-15.25-19.65-30.91-26.7-46.76-28-58.31-4.17-115.93-7.43-172.28-9.7v-5.94L281.6,709l73.75,4.62c25.33,3.08,61.68,3,76,9.23C438.61,725.21,445.88,729.66,453.11,735.45Zm-219-28.16v5.94c-72.56-2.92-143-4.19-210.24-3.59-5.92.74-7.79,3.79-7.83,8.6a74.43,74.43,0,0,1,.3-8.69c4.3-5.14,13-7.47,20.32-7.08l96.26,1.24,101.19,3.58Zm0,12.27C131.73,715.24,34,713.24,27.24,715.2c-7.43,1.56-8.44,6.94-9.52,12.5a30.84,30.84,0,0,0,.91,9.32,17,17,0,0,0,1.19,4.86c-.2-1.79-.22-2.85-.22-2.85a10.75,10.75,0,0,1,3.18-5.84,9.55,9.55,0,0,1,4.63-1.82l117.38,3.82c8,.63,12.69,3.57,14.52,11.33L163.86,760c1.16,4,4,6.41,8.23,7.44a151.3,151.3,0,0,0,24.09,1.14c8.5-.75,19.19-8.62,31.38-21.36a71.8,71.8,0,0,1,6.51-4.59V735a66,66,0,0,0-7.15,5.19l-20.63,16.63c-1.71,1.35-5.39,3.77-7.1,3.75l-24.07.1c-1.79.12-5-1.77-5.14-3.7L168,747l-1.63-7.56c-.61-4.11-4.85-8-10.29-8.34L32.49,724.66c-7-.64-12.07,7.17-13.86,12.36l-.84-5.82C20.86,721,28,717.64,37.8,719.1c65.56,1.25,131,3.62,196.27,6.57Z" transform="translate(-15.97 -228.61)"/><path class="cls-2" d="M1041.92,429.42q109.08,3.49,218.49,12.49c-18.76-56.13-41.88-109.94-71.11-160.52l-34.93-1.54c-72.31-4.59-121.89,5.43-157.14,28.8A670.09,670.09,0,0,1,1041.92,429.42Z" transform="translate(-15.97 -228.61)"/><path class="cls-2" d="M1227.82,283.77c36.64,51.51,68,105.28,91.73,162.34L1523.93,471c-7.64-17-19.83-47-24.86-63.08-16.78-13.59-34.54-25-51.4-37.14-56.78-40.82-113.29-66.32-172.61-77.12C1260,290.86,1242.82,287.17,1227.82,283.77Z" transform="translate(-15.97 -228.61)"/><path class="cls-2" d="M1028.28,429c-9.29-39.29-23.31-76.77-40-113.91-16.68,13.07-29.85,29.57-40.62,49.34-11.13,19.63-20.5,34.8-24.87,62.68Q975.47,427.49,1028.28,429Z" transform="translate(-15.97 -228.61)"/><path class="cls-2" d="M1579.78,434.31a137.91,137.91,0,0,1,.72,17.43l16.2,2.87c3.21-20.76-6.2-31-6.2-31-18.8-13.59-43.88-10.4-44.41-10.33,3.76-.35,8.72.35,14.57,1.82s13.1,6.67,16.86,12.13a12.53,12.53,0,0,1,1.76,4.56,102.54,102.54,0,0,1,13.84,2.07C1594.26,434.19,1579.64,433,1579.78,434.31Z" transform="translate(-15.97 -228.61)"/><path class="cls-2" d="M1774,542.92V525.74l2.46.51c14,3.66,27.78,6.9,40.34,10.28,15.72,4.67,28.75,9.63,38.65,13.48a16.43,16.43,0,0,0,.55,6.53c-26.39-5.35-53.79-9.84-82-13.62Zm0-18.54,2.73.57c14,2.93,27.85,6.56,40.45,10.3,16.25,4.84,25.45,8.11,35.49,12l3.67,3.06.48.2s-.87,4.42,2.26,10.12c3.4.46,23.83,4.52,23.38,35.43l.32.58c1.7,3.05,8.71,13.51,8.73,13.55-3-40.58-28.52-60-28.52-60-11.11-8.19-48.24-22.8-48.24-22.8L1774,514.35v5.09c4,1.31,8.56,2.69,13.4,4l6.08,2.55a165.23,165.23,0,0,1-19.48-5.43Zm-126.68-30.79ZM1774,514.35v5.09c-10.16-3.32-17-6.23-17.06-6.25l-2.43,0s8.85,3.74,19.49,7.32v3.85c-9.22-1.94-18.72-4-28-6-21.78-4.72-42.58-9.22-58.69-11.91-22.23-3.71-31.31-9.4-38.07-13.48l-1.1-.64c-6.91-4.14-32.38-21.46-32.46-21.51l-3.11-.83c.07.05,27.82,19.41,34.78,23.59l1.08.66c6.86,4.14,16.18,9.77,38.66,13.52,16,2.67,36.84,7.18,58.63,11.9,9.3,2,18.78,4.07,28.31,6.07v17.18c-42.5-5.68-86.86-9.74-132.47-12.68-3.46-15.28-31.69-38-31.76-38.09l-20.79-21.48c-2.39,1.12-14.65,5.34-17.8,5.71-1.68.26-3.26.44-4.74.57l-7.15-3.33c7.2-.76,13.42-2.28,17-5.94l9.72.78,10.78-13.85s49.93,20.2,58.69,23.7,82.29,24.41,82.29,24.41Z" transform="translate(-15.97 -228.61)"/><path class="cls-2" d="M1611,494.91c-18.91-5.2-130.2-21.39-214.24-32.09v25.44q9.36,1,18.76,2.88l1,2.78a121.9,121.9,0,0,0-19.72-1.8V498a131.72,131.72,0,0,1,23.7,2.47c-1.19,8.25-7.83,12.26-19.41,12.41l-3-5.17,2.86-6.19c-1.43-.3-2.81-.54-4.11-.7v21.69c82.41.93,164.23,2.62,242.4,7.58C1636.13,516.62,1614.93,498.21,1611,494.91Zm-214.24-32.09c-48.9-6.23-88.59-10.6-95.44-9.86.68,2.93,2.19,3.94,3.73,5.72L1319,478.34c4.85,8.28,9.06,16.45,13,24.27a104.37,104.37,0,0,1,5.59,19.36l1,0q29.13.24,58.24.56V500.82c-7.57-.94-13,.41-17.58,2.67l-6.12-3.73a137.16,137.16,0,0,1,23.7-1.76v-5.88a151.1,151.1,0,0,0-36,4.18q4.15,7.33,13.37,10.52l-.22,2.84c-12.09-4-18.75-11.07-19.47-21.52a201.89,201.89,0,0,1,42.28.12Z" transform="translate(-15.97 -228.61)"/><path class="cls-2" d="M1648.66,550.34c-103.24-5.4-206.47-9-309.7-12a177.94,177.94,0,0,0,5.29,35.38l.36,4.47,95.77,4,40.14,1.88,125,8.39,40.32,2c4.83.07,12.78.38,16.87-.21,31.82-4.59,54.21,3.06,75,26.61a157.31,157.31,0,0,1,11.76-17.1,118.84,118.84,0,0,1,15.19-15.94l.05-.05c17-12.42,34.33-18.44,50.8-17.21s30.74,9.19,44.25,24.47l14.64-9.13c-1.8-2.65-3.3-4.75-3.54-5.07l-.37-.63c-1.83-2.52-9.38-13.24-12.47-18.74a21.8,21.8,0,0,1-2-4.92c-71.68-10.37-113.53-12.68-113.53-12.68s-21.67,23.94-25.69,23.16l-54.82-2.39c-6.33-.27-10.31-6.16-12.34-11.32Z" transform="translate(-15.97 -228.61)"/><path class="cls-2" d="M1647,536.55s11.23,23.05,17,23.39c0,0,25.64,1.33,54.79,2.94l23.73-19C1697.62,538.28,1656.14,536.82,1647,536.55Z" transform="translate(-15.97 -228.61)"/><path class="cls-2" d="M1860.77,596.27A130.13,130.13,0,0,1,1875.84,619l.06.16c3.09,10.67,11,16.8,21.83,19.77l3.55,2.74c-6.11-9.5-9.61-30.26-9.8-31.43l.73,4.43s-8.87-14.23-10.63-17.39c-.63-1.15-2.23-3.71-4-6.5-.8-1.26-1.65-2.55-2.46-3.77Z" transform="translate(-15.97 -228.61)"/><path class="cls-2" d="M1583.31,602Zm-96.4-3.7,10.77,10.39c18,.64,40.79,1.87,63.54,3.09,45.7,2.45,91.41,4.9,98.24,2.69l.19,0c22.53-1.92,37.13,0,47.18,5.25,9.58,5,15,12.89,19.16,23.22,1-2.13,2-4.25,3.11-6.35q1.88-3.72,3.85-7.37c-22.84-25.52-54-25.57-85.68-21.7L1629,605.23c-13.35-1.91-18.42-2.59-31.78-2.74-4.65,0-9.3-.11-13.9-.5Z" transform="translate(-15.97 -228.61)"/><polygon class="cls-2" points="1444.92 375.73 1434.69 365.21 1329.55 360.87 1330.37 371.07 1444.92 375.73"/><path class="cls-2" d="M1012,569.8a344.76,344.76,0,0,1,26.38,37.13c14.63-29.67,99-9.73,148.38-12.91l157.27,6.4-1-11.87-115.54-4.78c-12.22-1.37-42,.83-63.33.7-79.53-12.77-125-13.42-142.32-4L1013,568.94c11.22-8.76,73-9.71,145.71,3.14,32.41,3.66,45.57-1,71.39,2.25L1342.24,579l-.42-5.06a224.55,224.55,0,0,1-4.7-35.58c-102.19-2.92-204.38-5.24-306.57-8.11l304.83-8.2c-2.87-13.92-9.25-28.06-17.79-42.33l-19.19-26.88c-91.43-6.47-195.91-12.88-286.38-15.15v30.46c11.47.35,23.15,1.25,35.3,2.71l2.53,2.42a248.66,248.66,0,0,0-37.83-1.82v7.12c14-1.17,29-1.66,42.65.79-3.93,6.43-11.78,11.21-20.9,12.75l-7.62-5,4.49-6.33-17.48-.44-1.14-.65v90.1Zm0-282.35c26.8-12.38,59.32-19.2,99.06-17.85,55.42-.59,112.25,2.84,172,14.58,85.65,19.46,170.75,73.77,255.58,145-.15-3.18-.27-6.36-.34-9.56a6.89,6.89,0,0,1,1.18-3.2l-81-57.56s-83.06-59.67-159.11-81.9c-54-15.78-184.71-28.62-287.37-33.89v44.39Zm0,295.92V574.1c7.28,9.19,14.33,18.6,21,28.35A191.34,191.34,0,0,0,1012,583.37Zm-64.94-78.65a352.71,352.71,0,0,1-21.55-29.25L911.4,456c-4-5.5-8.1-11.12-10.74-16.34l2.27.09,9.85,15.39,9.19,12.1,14.08,19.16a222.43,222.43,0,0,0,31.49,35.72l34.27,35.52q5.18,5.93,10.21,12.12V479.7l-1.75-1,1.75-.14v-7.12q-4.1.17-8,.52a82,82,0,0,0-24.62,6.82c6.46,5.43,12.89,8.06,20.27,7l-2.24,5.55c-15.37-5-23.34-12.06-23.27-22.37a352.44,352.44,0,0,1,37.82-.87V437.67c-40.24-1-77.72-1.2-110-.22-2.32-5-2.56-11.66-1.06-19.71,9.15-24.46,22.74-46.08,37.77-67.53,18.08-25.81,41.72-48.15,73.32-62.76V243.06c-41.9-2.16-79.14-3.06-104.57-2.38l-8.5.22v9.38c22.71,1.55,34.45,3.15,34.54,3.16l-.17,1.32c-.08,0-12.18-1.58-34.37-3.19V266.5c26.83-8.89,48.32-12.17,51.12-11.71-13.53,2.92-30.11,6-51.12,13.21V561.85c14.12-4.71,30.37-7.19,49.27-6.42,20,2.1,42.22,11.18,63.8,27.94V574.1q-2.88-3.65-5.81-7.24c-8.94-10.49-18.94-20.88-28.45-30.24l-16.67-16.89ZM899,240.9c-69.62,1.65-97-.17-184.39,9.44v4.85c7-1.22,14.3-3.08,22-3.7,2.94-.23,3.65.49,1.73,1-3.78,1-15.16,3.62-23.72,5.46v27.12c61.78,2.75,113.06,10.83,125.19,22.82L838,309.39c-41.31,30.6-82.76,60.5-123.4,78.55V591L833.1,612c15.7-20.33,36-40.23,65.85-50.17V268a328.22,328.22,0,0,0-41.2,17.59,2,2,0,0,0-.87,2c.51,1.37,1.43,3.43.46,5.48-.36.62-1,1-1.23-.27-.12-7.49-8.07-9.65-7.88-9.65-.49-.13-.81-1.67.76-1.67a12.35,12.35,0,0,1,5.86,3.43c.17.18.46-.07,1.06-.38a292.81,292.81,0,0,1,43-18V251.57c-27.47-2-70.4-4-125.2-3.28l7.48-.71c52.55-.73,92.11.95,117.72,2.7V240.9ZM714.56,314V292c10.06.48,20,1.11,29.76,1.9-9.85,7.18-19.63,13.82-29.76,20Zm0,514.29,23.12,5.42c17.27-6,30.54-17.24,40.13-34.31l-63.25-13.45v42.34Zm0-47.82V674.87l93.93,13c-12.66,29.31-30.2,61.22-26.93,104.09,0,.09-.08.18-.13.27l-66.87-11.85Zm0-117.65V593.42l117.57,19.86c-8.23,10.79-15.18,21.64-21.58,31.12-4.3,6.39-14.31,20.45-19.11,27.05Zm0-412.44c-14,1.54-29.48,3.37-46.95,5.55-112.06,14-173.92,42.38-189.5,50.31,51.63-18.94,153.51-24.84,236.45-21.14V257.94c-5,1.08-9.08,1.9-10,2a89.15,89.15,0,0,1-12.12.1,2.61,2.61,0,0,1-2.52-3.47,150,150,0,0,0,17-.34,75.66,75.66,0,0,0,7.74-1v-4.85Zm0,137.6V591l-27.47-4.86C653,580.7,623.51,566,594.76,538.55l.25-.18c28.69-17.6,56.1-36.35,77.91-60.08,1.08-3.51.57-6.49-2-8.94-11-7.64-23.52-13.45-36.69-19-9.69-3.94-19.56-6.92-30.38-6.61-35.38.39-65.62,7.12-89,22.26-17.53,10.6-32.73,24.37-46.87,39.59q-30.72,31.93-57.66,64.81c-5.1,5.85-5.15,11.21,1.83,11.05,21.4-2.83,43-5.12,65-6.41C521.84,572.13,560.73,561,592.63,540c38.35,31.25,43.31,38.17,89.45,48l32.48,5.49v69.36l-110-12.41a1078.89,1078.89,0,0,0-144.23-11c48.22,4.64,96.14,10.52,143.14,20.08l111,15.43V780.43L560.83,753.2l153.73,32.71v42.34L544.31,788.38c-28.82-6.18-53.26-20.1-74.07-40.45-17.91-17.09-33.17-30.29-64.58-32.84-37.67-3.19-89.3-5.43-133.08-7.13v-6.82c17.26-.27,37.37-.55,60.75-.86q-30.37-2-60.75-3.44V659c20.35-5.26,52.09-11.65,123.3-22l-123.3-2.87V608.68q30.76-2.94,61.41-7.56c9.22-1.56,18.9-5.7,29.34-14-18.24,9.6-45.61,12.93-77.6,15.43l-13.15.74V583.48c13.45-1.57,26.75-3.6,39.86-6.29,19.32-3.76,56.52-52.3,69.38-91.06l69.06-4.45.69-1.36-70.3,4.3a10,10,0,0,0-9.48-6.49q-49.6-1.47-99.21-1.36V419.19c87.93-.13,185,7.76,233.36,10.49l9.62-4.34-10.77,2.13c-48-6.1-100.92-13.46-153.28-18,12.91-9.59,51.4-11.8,77.1-17.7l-113.1,4c56-32.46,111-62.52,162.73-85.11,32.37-14.13,139.61-23.22,236.32-18.59V314c-47.94,29.39-103.87,49.31-213,73,65.73,2.47,137.92.54,197.18,7.4q7.89-2.89,15.83-6.42Zm-442,181.58q3.57-.49,7.22-1.06c25.58-2.89,43.53-5,52.47-15.15,12.93-14.2,21.84-28.75,27.71-43.56,2.31-7.71,1.51-12.17-3.86-11.89h-5.61l-4.87.28-4.48,23.32-3.39,17.62c-1.22,5.91-6,4.35-13,4.6l-52.17,0Zm0-150.33c-67.78.1-130.14,5-160.54,20.61,0,0-10.29,7.9-29.71,44.88-1,29.68-.12,59.15,1.69,88.52-.65,7.2-5.57,8.78-13.39,6.51-11.06-1.63-20.76-4.08-28.3-7.85a88.54,88.54,0,0,0-11.1,13.87c10.5,7.55,30.2,11.76,51.81,14.38l-43.67-3.59-11,31.91,244.26,5.69V608.68q-26.37,2.52-52.84,3.71c-30.22-3.44-59.78-7.48-86.61-14-14.2-5-21.17-13.59-25.85-22.88-8.7-27.13-14.1-56-13.59-88.06l-.1-.64,30.24,1.05c.92-2.19,4.52-7.26,10.56-7.61q69.09-3.35,138.19-3.48V419.19Zm0,239.79c-19.81,5.11-28.82,9.15-52.93,14.7-4.92,1.13-9.59,2.39-14.65,2.45L99.08,677.35c-29.12.29-68.63-1.5-79,15.79,0,0-4.9,5.83-3.74,16.41-.5-9,2.88-15.34,11.11-15.74,81.72-2.11,163.45-.92,245.17,3V659Zm0,42.16V708c-86.42-3.36-142.28-4.6,0-6.82Zm0-157.4v25.78c-33.37,4.56-62.38,3.85-95.13-1.84-9.9-.54-16.62,2.58-19.49,10.14a416.46,416.46,0,0,0,69,9.5c15.33-.89,30.58-2.08,45.64-3.84v19.79l-52.73,3-52.53-22.54c-39.67-5.39-47-47.91-44.12-93.81.53,0,3.26-3.06,3.5-3.15,6.38-2.39,10.65-.74,15.22,4.12,12.13,7,24.63,8.49,37.38,6.23l-9.52,40.38q-1,5.94,5.89,6.35Z" transform="translate(-15.97 -228.61)"/><path class="cls-1" d="M814.57,673.5l-21-1.86-1.18-.08-.95-.11L604.6,650.37a1078.89,1078.89,0,0,0-144.23-11c48.22,4.64,96.14,10.52,143.14,20.08l205,28.48.24,0C810.86,683.07,812.84,678.26,814.57,673.5Z" transform="translate(-15.97 -228.61)"/><path class="cls-2" d="M1760.35,678.54c3.66.1,6.31,1,8.11,2.54C1761,686.68,1755.37,679,1760.35,678.54Z" transform="translate(-15.97 -228.61)"/><path class="cls-2" d="M1782.74,700.84c-1.94,1.62-2.42,4.23-1.08,5.84s4,1.59,5.94,0,2.42-4.23,1.08-5.84S1784.67,699.22,1782.74,700.84Z" transform="translate(-15.97 -228.61)"/><path class="cls-2" d="M1763.51,705.62a27.14,27.14,0,0,1,9.67-2c2.63.82,2.88,3.54.48,4.12l-8.41,1.6C1763.86,710,1762.38,707,1763.51,705.62Z" transform="translate(-15.97 -228.61)"/></svg>